<svg xmlns="http://www.w3.org/2000/svg" xmlns:xlink="http://www.w3.org/1999/xlink" width="1080" zoomAndPan="magnify" viewBox="0 0 810 809.999993" height="1080" preserveAspectRatio="xMidYMid meet" version="1.0"><defs><filter x="0%" y="0%" width="100%" height="100%" id="1982184d73"><feColorMatrix values="0 0 0 0 1 0 0 0 0 1 0 0 0 0 1 0 0 0 1 0" color-interpolation-filters="sRGB"/></filter><g/><mask id="ca2dda57b3"><g filter="url(#1982184d73)"><rect x="-81" width="972" fill="#000000" y="-80.999999" height="971.999992" fill-opacity="0.2471"/></g></mask><clipPath id="e0d200cecd"><path d="M 15 42 L 199 42 L 199 183 L 15 183 Z M 15 42 " clip-rule="nonzero"/></clipPath><clipPath id="8e6faa9145"><path d="M 233.585938 151.625 L 43.597656 229.429688 L -24.160156 63.980469 L 165.828125 -13.828125 Z M 233.585938 151.625 " clip-rule="nonzero"/></clipPath><clipPath id="a07c40b48d"><path d="M 233.585938 151.625 L 43.597656 229.429688 L -24.160156 63.980469 L 165.828125 -13.828125 Z M 233.585938 151.625 " clip-rule="nonzero"/></clipPath><clipPath id="68a1d960d8"><rect x="0" width="211" y="0" height="213"/></clipPath><clipPath id="62068b5e0e"><path d="M 472 261 L 698 261 L 698 486.976562 L 472 486.976562 Z M 472 261 " clip-rule="nonzero"/></clipPath><clipPath id="5c7bf76fc2"><path d="M 592 242.25 L 648 242.25 L 648 332 L 592 332 Z M 592 242.25 " clip-rule="nonzero"/></clipPath></defs><g mask="url(#ca2dda57b3)"><g transform="matrix(1, 0, 0, 1, 439, 273)"><g clip-path="url(#68a1d960d8)"><g clip-path="url(#e0d200cecd)"><g clip-path="url(#8e6faa9145)"><g clip-path="url(#a07c40b48d)"><path fill="#3a5a40" d="M 83.441406 178.058594 C 48.683594 165.464844 -16.726562 81.773438 33.007812 48.984375 C 66.640625 26.792969 71.992188 62.3125 118.101562 90.121094 C 133.378906 99.316406 208.109375 89.777344 197.125 137.148438 C 190.605469 165.222656 128.894531 194.5 83.441406 178.058594 Z M 83.441406 178.058594 " fill-opacity="1" fill-rule="nonzero"/></g></g></g></g></g></g><g clip-path="url(#62068b5e0e)"><path fill="#3a5a40" d="M 652.421875 283.875 C 652.273438 283.761719 652.109375 283.675781 651.929688 283.628906 C 651.75 283.578125 651.566406 283.566406 651.382812 283.589844 C 651.195312 283.613281 651.023438 283.671875 650.859375 283.769531 C 650.699219 283.863281 650.5625 283.984375 650.449219 284.136719 C 650.339844 284.285156 650.261719 284.453125 650.214844 284.632812 C 650.171875 284.816406 650.164062 285 650.195312 285.183594 C 650.222656 285.367188 650.289062 285.539062 650.386719 285.699219 C 650.488281 285.855469 650.613281 285.992188 650.765625 286.097656 C 678.425781 306.671875 694.523438 338.324219 694.941406 372.945312 C 695.082031 384.429688 693.46875 395.660156 690.101562 406.640625 C 687.972656 409.355469 685.855469 412.074219 683.660156 414.738281 C 681.191406 417.804688 678.566406 420.734375 675.789062 423.527344 C 675.15625 424.144531 674.515625 424.746094 673.859375 425.324219 C 673.542969 425.609375 673.222656 425.882812 672.898438 426.148438 L 672.445312 426.515625 L 672.25 426.671875 C 672.398438 426.550781 672.210938 426.671875 672.167969 426.726562 C 670.582031 427.929688 668.878906 428.972656 667.246094 430.113281 C 665.464844 431.28125 663.859375 432.660156 662.4375 434.246094 C 661.058594 435.84375 660.09375 437.660156 659.539062 439.699219 C 659.011719 441.660156 658.898438 443.648438 659.195312 445.660156 C 659.496094 447.667969 660.183594 449.539062 661.257812 451.265625 C 661.542969 451.699219 661.855469 452.109375 662.183594 452.519531 C 659.660156 455.019531 657.019531 457.394531 654.261719 459.640625 C 651.503906 461.882812 648.644531 463.988281 645.679688 465.953125 C 642.71875 467.917969 639.664062 469.734375 636.523438 471.402344 C 633.382812 473.066406 630.167969 474.578125 626.882812 475.929688 C 623.59375 477.28125 620.246094 478.46875 616.84375 479.492188 C 613.4375 480.519531 609.992188 481.375 606.503906 482.0625 C 603.015625 482.75 599.5 483.265625 595.964844 483.609375 C 592.425781 483.953125 588.878906 484.121094 585.320312 484.121094 L 585.132812 484.121094 C 581.617188 484.132812 578.109375 483.976562 574.609375 483.652344 C 571.109375 483.328125 567.632812 482.835938 564.179688 482.171875 C 560.726562 481.511719 557.316406 480.6875 553.941406 479.695312 C 550.570312 478.707031 547.25 477.554688 543.988281 476.246094 C 540.726562 474.933594 537.535156 473.46875 534.417969 471.847656 C 531.296875 470.230469 528.261719 468.464844 525.3125 466.550781 C 522.359375 464.640625 519.511719 462.589844 516.757812 460.402344 C 514.007812 458.214844 511.367188 455.898438 508.839844 453.457031 C 509.671875 452.003906 510.3125 450.472656 510.757812 448.859375 C 511.207031 447.246094 511.449219 445.601562 511.484375 443.929688 C 511.519531 442.253906 511.34375 440.601562 510.964844 438.972656 C 510.585938 437.34375 510.011719 435.785156 509.238281 434.296875 C 507.699219 431.355469 505.269531 429.144531 502.980469 426.820312 C 502.410156 426.246094 501.886719 425.675781 501.382812 425.101562 L 501.035156 424.679688 L 501 424.636719 C 500.949219 424.582031 500.902344 424.507812 500.855469 424.441406 C 500.632812 424.144531 500.421875 423.835938 500.226562 423.515625 C 500.039062 423.21875 499.867188 422.910156 499.710938 422.59375 L 499.589844 422.332031 C 499.523438 422.152344 499.460938 421.976562 499.398438 421.792969 C 499.289062 421.457031 499.203125 421.117188 499.140625 420.773438 C 499.140625 420.703125 499.105469 420.613281 499.097656 420.53125 L 499.097656 420.464844 C 499.097656 420.273438 499.097656 420.089844 499.066406 419.890625 C 499.066406 419.59375 499.066406 419.320312 499.105469 419.003906 C 499.105469 419.003906 499.105469 419.03125 499.105469 419.050781 C 499.125 418.96875 499.136719 418.890625 499.144531 418.808594 C 499.144531 418.65625 499.203125 418.5 499.242188 418.34375 C 499.308594 418.058594 499.390625 417.78125 499.488281 417.503906 C 499.539062 417.355469 499.597656 417.210938 499.648438 417.0625 L 499.734375 416.867188 C 500.28125 415.707031 500.945312 414.621094 501.726562 413.605469 C 501.777344 413.535156 501.835938 413.464844 501.882812 413.398438 L 502.15625 413.046875 L 502.820312 412.234375 C 503.246094 411.714844 503.675781 411.203125 504.09375 410.683594 C 504.992188 409.613281 505.8125 408.488281 506.558594 407.304688 C 508.027344 404.871094 508.769531 401.964844 507.863281 399.1875 C 506.792969 395.929688 503.960938 393.585938 500.960938 392.132812 C 497.398438 390.488281 493.65625 389.574219 489.738281 389.390625 C 485.757812 389.144531 481.859375 389.59375 478.039062 390.746094 C 477.542969 390.894531 477.054688 391.0625 476.574219 391.234375 C 475.753906 385.875 475.328125 380.484375 475.292969 375.0625 C 475.183594 362.171875 477.28125 349.652344 481.589844 337.503906 C 481.894531 336.671875 482.296875 335.882812 482.789062 335.144531 C 483.285156 334.402344 483.863281 333.734375 484.519531 333.132812 C 485.175781 332.53125 485.890625 332.015625 486.671875 331.589844 C 487.453125 331.160156 488.269531 330.832031 489.128906 330.601562 C 493.78125 329.300781 497.277344 329.289062 498.96875 330.601562 C 499.902344 331.304688 500.351562 332.460938 500.351562 334.121094 C 500.351562 339.5625 497.855469 344.777344 495.199219 350.304688 C 492.542969 355.828125 489.789062 361.613281 489.789062 367.679688 C 489.789062 370.980469 490.109375 374.488281 492.484375 375.476562 C 495.75 376.824219 500.308594 373.011719 513.246094 360.070312 C 520.738281 352.582031 527.980469 350.910156 533.796875 349.542969 C 540.445312 347.996094 546.1875 346.679688 548.140625 337.4375 C 549.910156 329.058594 546.867188 320.996094 544.1875 313.878906 C 541.601562 307.007812 539.160156 300.554688 541.359375 294.984375 C 543.78125 288.847656 546.457031 286.285156 548.746094 284.585938 C 549.339844 284.160156 549.894531 283.6875 550.410156 283.171875 C 550.929688 282.65625 551.402344 282.101562 551.832031 281.511719 C 552.261719 280.917969 552.640625 280.296875 552.972656 279.648438 C 553.304688 278.996094 553.582031 278.324219 553.804688 277.625 C 554.03125 276.929688 554.199219 276.222656 554.308594 275.5 C 554.421875 274.777344 554.476562 274.050781 554.472656 273.320312 C 554.46875 272.589844 554.40625 271.863281 554.289062 271.144531 C 554.167969 270.421875 553.992188 269.714844 553.761719 269.023438 C 563.203125 266.222656 572.84375 264.714844 582.6875 264.503906 L 582.722656 264.503906 C 583.867188 264.503906 584.957031 264.46875 586.074219 264.503906 C 586.257812 264.503906 586.433594 264.46875 586.601562 264.398438 C 586.773438 264.328125 586.921875 264.230469 587.050781 264.097656 C 587.183594 263.96875 587.28125 263.820312 587.351562 263.648438 C 587.421875 263.480469 587.457031 263.304688 587.457031 263.121094 C 587.457031 262.9375 587.421875 262.757812 587.351562 262.589844 C 587.28125 262.417969 587.183594 262.269531 587.050781 262.140625 C 586.921875 262.007812 586.773438 261.910156 586.601562 261.839844 C 586.433594 261.769531 586.257812 261.734375 586.074219 261.734375 L 584.847656 261.734375 C 581.003906 261.734375 577.171875 261.933594 573.347656 262.328125 C 569.527344 262.722656 565.734375 263.3125 561.972656 264.097656 C 558.210938 264.878906 554.496094 265.851562 550.835938 267.015625 C 547.171875 268.179688 543.578125 269.527344 540.054688 271.058594 C 536.53125 272.589844 533.09375 274.296875 529.742188 276.183594 C 526.394531 278.066406 523.148438 280.113281 520.007812 282.332031 C 516.867188 284.546875 513.851562 286.917969 510.953125 289.441406 C 508.054688 291.96875 505.296875 294.632812 502.671875 297.441406 C 502.542969 297.574219 502.445312 297.726562 502.378906 297.902344 C 502.3125 298.074219 502.28125 298.253906 502.289062 298.4375 C 502.292969 298.625 502.335938 298.800781 502.410156 298.96875 C 502.488281 299.136719 502.59375 299.285156 502.726562 299.414062 C 502.863281 299.539062 503.019531 299.632812 503.191406 299.699219 C 503.367188 299.761719 503.546875 299.789062 503.730469 299.785156 C 503.914062 299.777344 504.09375 299.734375 504.261719 299.652344 C 504.429688 299.574219 504.574219 299.46875 504.699219 299.332031 C 511.050781 292.523438 518.152344 286.617188 526.007812 281.621094 C 533.863281 276.621094 542.21875 272.683594 551.078125 269.8125 C 551.265625 270.371094 551.410156 270.9375 551.507812 271.519531 C 551.605469 272.097656 551.660156 272.679688 551.664062 273.269531 C 551.667969 273.855469 551.628906 274.441406 551.539062 275.023438 C 551.453125 275.605469 551.320312 276.175781 551.140625 276.734375 C 550.960938 277.296875 550.738281 277.839844 550.472656 278.363281 C 550.207031 278.886719 549.898438 279.386719 549.554688 279.863281 C 549.207031 280.339844 548.828125 280.785156 548.410156 281.199219 C 547.992188 281.613281 547.546875 281.992188 547.070312 282.335938 C 544.464844 284.265625 541.441406 287.152344 538.753906 293.941406 C 536.167969 300.503906 538.789062 307.46875 541.566406 314.832031 C 544.242188 321.917969 547.007812 329.25 545.402344 336.835938 C 543.816406 344.324219 539.796875 345.265625 533.144531 346.808594 C 526.984375 348.246094 519.3125 350.027344 511.265625 358.078125 C 505.023438 364.316406 495.605469 373.726562 493.515625 372.878906 C 493.351562 372.8125 492.53125 372.238281 492.53125 367.652344 C 492.53125 362.214844 495.027344 356.996094 497.683594 351.472656 C 500.339844 345.945312 503.101562 340.164062 503.101562 334.09375 C 503.101562 331.539062 502.265625 329.609375 500.621094 328.367188 C 498.15625 326.496094 494.027344 326.34375 488.359375 327.933594 C 487.289062 328.226562 486.265625 328.644531 485.296875 329.183594 C 484.328125 329.726562 483.433594 330.371094 482.617188 331.125 C 481.804688 331.878906 481.089844 332.71875 480.476562 333.644531 C 479.863281 334.570312 479.367188 335.554688 478.992188 336.601562 C 478.234375 338.714844 477.542969 340.851562 476.917969 343.003906 C 476.289062 345.160156 475.726562 347.335938 475.230469 349.523438 C 474.730469 351.710938 474.300781 353.914062 473.9375 356.128906 C 473.570312 358.34375 473.273438 360.570312 473.039062 362.800781 C 472.808594 365.035156 472.640625 367.273438 472.542969 369.515625 C 472.445312 371.757812 472.414062 374.003906 472.449219 376.25 C 472.488281 378.492188 472.589844 380.734375 472.761719 382.972656 C 472.933594 385.210938 473.167969 387.445312 473.472656 389.667969 C 473.777344 391.890625 474.148438 394.105469 474.585938 396.308594 C 475.019531 398.511719 475.523438 400.699219 476.089844 402.871094 C 476.660156 405.042969 477.289062 407.195312 477.988281 409.328125 C 478.683594 411.464844 479.445312 413.574219 480.265625 415.664062 C 481.089844 417.753906 481.976562 419.816406 482.921875 421.851562 C 483.867188 423.886719 484.875 425.890625 485.941406 427.867188 C 487.007812 429.84375 488.132812 431.785156 489.316406 433.691406 C 490.5 435.601562 491.738281 437.472656 493.03125 439.304688 C 494.328125 441.140625 495.675781 442.933594 497.078125 444.6875 C 498.480469 446.441406 499.9375 448.148438 501.441406 449.816406 C 502.945312 451.480469 504.5 453.101562 506.101562 454.675781 C 507.703125 456.246094 509.351562 457.769531 511.042969 459.246094 C 512.734375 460.71875 514.472656 462.140625 516.25 463.511719 C 518.027344 464.882812 519.847656 466.199219 521.703125 467.460938 C 523.558594 468.722656 525.453125 469.925781 527.382812 471.074219 C 529.3125 472.222656 531.273438 473.3125 533.269531 474.34375 C 535.261719 475.371094 537.285156 476.34375 539.339844 477.253906 C 541.390625 478.160156 543.46875 479.007812 545.574219 479.792969 C 547.675781 480.578125 549.800781 481.300781 551.945312 481.957031 C 554.09375 482.617188 556.257812 483.207031 558.441406 483.738281 C 560.621094 484.265625 562.816406 484.726562 565.027344 485.125 C 567.238281 485.519531 569.457031 485.851562 571.6875 486.113281 C 573.914062 486.378906 576.152344 486.574219 578.390625 486.703125 C 580.632812 486.832031 582.875 486.894531 585.121094 486.890625 L 585.320312 486.890625 C 587.175781 486.886719 589.03125 486.839844 590.882812 486.742188 C 592.738281 486.648438 594.585938 486.507812 596.429688 486.320312 C 598.277344 486.136719 600.117188 485.902344 601.949219 485.625 C 603.785156 485.347656 605.613281 485.027344 607.429688 484.660156 C 609.25 484.292969 611.054688 483.878906 612.855469 483.421875 C 614.652344 482.964844 616.4375 482.464844 618.210938 481.921875 C 619.984375 481.375 621.742188 480.785156 623.488281 480.15625 C 625.230469 479.523438 626.957031 478.847656 628.667969 478.128906 C 630.378906 477.414062 632.070312 476.652344 633.746094 475.851562 C 635.417969 475.050781 637.070312 474.210938 638.703125 473.328125 C 640.332031 472.445312 641.941406 471.523438 643.527344 470.558594 C 645.113281 469.597656 646.675781 468.597656 648.210938 467.558594 C 649.75 466.515625 651.257812 465.441406 652.742188 464.328125 C 654.226562 463.210938 655.679688 462.0625 657.105469 460.875 C 658.535156 459.691406 659.929688 458.46875 661.296875 457.214844 C 662.664062 455.960938 663.996094 454.671875 665.300781 453.351562 C 666.601562 452.03125 667.871094 450.679688 669.105469 449.292969 C 670.34375 447.910156 671.542969 446.496094 672.710938 445.054688 C 673.875 443.613281 675.003906 442.140625 676.097656 440.640625 C 677.191406 439.144531 678.246094 437.617188 679.265625 436.066406 C 680.28125 434.515625 681.261719 432.941406 682.199219 431.339844 C 683.140625 429.742188 684.039062 428.121094 684.902344 426.476562 C 685.761719 424.832031 686.578125 423.167969 687.355469 421.484375 C 688.132812 419.800781 688.871094 418.097656 689.5625 416.375 C 690.257812 414.65625 690.90625 412.917969 691.515625 411.167969 C 692.121094 409.414062 692.6875 407.648438 693.207031 405.867188 C 693.726562 404.085938 694.203125 402.292969 694.632812 400.488281 C 695.066406 398.683594 695.453125 396.871094 695.796875 395.046875 C 696.136719 393.222656 696.433594 391.394531 696.683594 389.554688 C 696.9375 387.71875 697.144531 385.875 697.304688 384.027344 C 697.464844 382.175781 697.578125 380.328125 697.648438 378.472656 C 697.71875 376.617188 697.738281 374.765625 697.71875 372.910156 C 697.289062 337.417969 680.78125 304.964844 652.421875 283.875 Z M 477.042969 394.042969 C 478.511719 393.5 480.015625 393.066406 481.550781 392.746094 C 482.003906 392.652344 482.460938 392.566406 482.917969 392.492188 L 483.640625 392.382812 L 483.679688 392.382812 L 484.183594 392.320312 C 485.105469 392.222656 486.03125 392.160156 486.964844 392.136719 C 487.898438 392.113281 488.90625 392.136719 489.878906 392.199219 C 490.34375 392.230469 490.800781 392.269531 491.265625 392.320312 L 491.804688 392.382812 L 492.027344 392.417969 L 492.40625 392.476562 C 494.273438 392.765625 496.097656 393.222656 497.878906 393.847656 L 498.453125 394.066406 L 498.734375 394.179688 C 499.109375 394.335938 499.484375 394.511719 499.84375 394.695312 C 500.535156 395.042969 501.203125 395.4375 501.839844 395.875 C 501.992188 395.984375 502.15625 396.089844 502.300781 396.207031 L 502.539062 396.402344 C 502.855469 396.667969 503.160156 396.941406 503.445312 397.234375 C 503.683594 397.464844 503.90625 397.710938 504.109375 397.972656 C 504.074219 397.925781 504.050781 397.902344 504.109375 398.023438 L 504.28125 398.265625 C 504.390625 398.425781 504.5 398.589844 504.597656 398.761719 C 504.699219 398.929688 504.792969 399.101562 504.875 399.277344 C 504.910156 399.335938 504.9375 399.394531 504.960938 399.457031 C 504.964844 399.46875 504.964844 399.484375 504.960938 399.5 C 505.136719 399.851562 505.25 400.21875 505.300781 400.605469 C 505.347656 400.75 505.378906 400.898438 505.390625 401.050781 L 505.390625 401.132812 C 505.398438 401.207031 505.398438 401.28125 505.390625 401.355469 C 505.414062 401.667969 505.414062 401.976562 505.390625 402.289062 C 505.390625 402.414062 505.28125 402.949219 505.390625 402.472656 C 505.363281 402.605469 505.351562 402.734375 505.324219 402.863281 C 505.289062 403.171875 505.234375 403.476562 505.164062 403.777344 C 505.082031 404.03125 504.984375 404.269531 504.894531 404.515625 L 504.808594 404.707031 L 504.589844 405.140625 C 504.296875 405.699219 503.96875 406.242188 503.609375 406.761719 C 503.445312 407.007812 503.273438 407.25 503.09375 407.488281 C 503.003906 407.613281 502.914062 407.742188 502.816406 407.859375 C 502.757812 407.921875 502.710938 408 502.65625 408.066406 C 501.847656 409.09375 501 410.089844 500.179688 411.109375 C 498.542969 413.15625 496.882812 415.417969 496.417969 418.066406 C 496.128906 419.601562 496.226562 421.113281 496.710938 422.597656 C 497.277344 424.144531 498.09375 425.539062 499.167969 426.785156 C 500.171875 427.960938 501.234375 429.085938 502.351562 430.152344 C 502.925781 430.726562 503.460938 431.25 503.996094 431.816406 C 504.242188 432.082031 504.480469 432.34375 504.714844 432.613281 L 505.105469 433.078125 L 505.238281 433.238281 L 505.335938 433.359375 C 505.8125 433.996094 506.242188 434.664062 506.628906 435.363281 C 506.804688 435.683594 506.972656 436.015625 507.132812 436.347656 C 507.210938 436.523438 507.292969 436.695312 507.367188 436.875 L 507.523438 437.269531 C 507.804688 438.019531 508.035156 438.78125 508.21875 439.558594 C 508.300781 439.921875 508.375 440.285156 508.445312 440.652344 C 508.445312 440.832031 508.511719 441.019531 508.53125 441.226562 C 508.53125 441.371094 508.558594 441.507812 508.574219 441.648438 C 508.652344 442.425781 508.683594 443.203125 508.667969 443.980469 C 508.667969 444.371094 508.636719 444.757812 508.605469 445.125 C 508.605469 445.335938 508.5625 445.550781 508.539062 445.761719 C 508.539062 445.761719 508.539062 445.910156 508.539062 445.949219 C 508.539062 445.988281 508.539062 446.070312 508.511719 446.128906 C 508.390625 446.902344 508.222656 447.664062 508.003906 448.417969 C 507.894531 448.789062 507.773438 449.15625 507.640625 449.523438 L 507.414062 450.09375 L 507.257812 450.445312 C 507.105469 450.769531 506.941406 451.085938 506.773438 451.402344 C 502.921875 447.507812 499.386719 443.34375 496.164062 438.914062 C 492.945312 434.488281 490.074219 429.839844 487.554688 424.980469 C 485.035156 420.117188 482.894531 415.09375 481.132812 409.910156 C 479.371094 404.722656 478.007812 399.433594 477.042969 394.042969 Z M 661.921875 441.804688 Z M 662.703125 448.074219 L 662.746094 448.171875 C 662.726562 448.136719 662.710938 448.101562 662.703125 448.0625 Z M 664.148438 450.558594 L 663.964844 450.308594 C 663.832031 450.125 663.703125 449.933594 663.585938 449.734375 C 663.339844 449.351562 663.121094 448.953125 662.921875 448.542969 L 662.769531 448.210938 C 662.675781 447.984375 662.589844 447.753906 662.511719 447.523438 C 662.363281 447.09375 662.234375 446.65625 662.132812 446.214844 C 662.085938 446.007812 662.046875 445.800781 662.007812 445.59375 C 662.007812 445.476562 661.964844 445.359375 661.949219 445.238281 C 661.933594 445.121094 661.949219 445.148438 661.949219 445.132812 C 661.898438 444.679688 661.867188 444.222656 661.855469 443.761719 C 661.847656 443.304688 661.855469 442.851562 661.902344 442.398438 C 661.902344 442.28125 661.902344 442.152344 661.941406 442.035156 L 661.941406 441.980469 C 662.011719 441.746094 662.050781 441.503906 662.0625 441.261719 C 662.15625 440.8125 662.269531 440.371094 662.402344 439.9375 C 662.464844 439.742188 662.53125 439.542969 662.609375 439.363281 C 662.683594 439.1875 662.699219 439.136719 662.738281 439.023438 C 662.777344 438.90625 662.699219 439.109375 662.699219 439.109375 C 662.71875 439.042969 662.75 438.976562 662.785156 438.917969 C 662.972656 438.503906 663.183594 438.101562 663.414062 437.710938 C 663.53125 437.515625 663.65625 437.320312 663.78125 437.136719 L 663.976562 436.863281 L 664.113281 436.675781 C 664.722656 435.90625 665.398438 435.195312 666.140625 434.550781 C 666.511719 434.222656 666.894531 433.910156 667.285156 433.597656 L 667.367188 433.535156 L 667.6875 433.296875 L 668.292969 432.855469 C 669.929688 431.710938 671.636719 430.640625 673.257812 429.460938 C 674.640625 428.4375 675.949219 427.328125 677.191406 426.136719 C 679.917969 423.480469 682.484375 420.679688 684.890625 417.726562 C 685.734375 416.71875 686.558594 415.695312 687.382812 414.675781 C 684.726562 421.359375 681.441406 427.71875 677.53125 433.757812 C 673.621094 439.792969 669.160156 445.390625 664.148438 450.546875 Z M 664.148438 450.558594 " fill-opacity="1" fill-rule="nonzero"/></g><path fill="#3a5a40" d="M 581.195312 349.789062 C 581.589844 351.019531 582.199219 352.132812 583.015625 353.136719 C 583.832031 354.136719 584.804688 354.957031 585.929688 355.59375 C 587.195312 356.265625 588.542969 356.667969 589.972656 356.796875 C 591.402344 356.925781 592.800781 356.773438 594.167969 356.339844 C 596.84375 355.519531 599.226562 354.183594 601.320312 352.332031 C 601.789062 352.828125 602.277344 353.320312 602.78125 353.789062 C 604.898438 355.875 607.40625 357.246094 610.308594 357.894531 C 613.492188 358.527344 616.722656 358.195312 619.929688 357.96875 C 622.828125 357.71875 625.714844 357.839844 628.585938 358.332031 C 634.128906 359.390625 639.292969 361.988281 642.992188 366.296875 C 643.871094 367.304688 644.644531 368.390625 645.308594 369.550781 C 645.976562 370.710938 646.523438 371.925781 646.949219 373.195312 C 647.375 374.464844 647.671875 375.761719 647.839844 377.089844 C 648.011719 378.417969 648.050781 379.75 647.957031 381.085938 C 647.839844 382.320312 647.597656 383.527344 647.226562 384.710938 C 646.882812 385.863281 646.421875 386.964844 645.84375 388.019531 C 644.65625 390.238281 643.144531 392.210938 641.308594 393.933594 C 639.457031 395.726562 637.410156 397.253906 635.164062 398.515625 C 632.773438 399.878906 630.257812 400.957031 627.625 401.746094 C 621.40625 403.675781 614.90625 404.386719 608.460938 405.140625 C 602.425781 405.84375 596.367188 406.613281 590.539062 408.398438 C 584.980469 410.117188 579.632812 412.738281 575.410156 416.804688 C 571.007812 421.042969 568.144531 426.609375 563.640625 430.746094 C 561.671875 432.652344 559.378906 434.015625 556.769531 434.839844 C 555.496094 435.226562 554.199219 435.355469 552.875 435.226562 C 552.757812 435.222656 552.644531 435.210938 552.53125 435.191406 L 552.0625 435.097656 C 551.726562 435.023438 551.394531 434.925781 551.070312 434.808594 C 550.5625 434.59375 550.109375 434.304688 549.703125 433.929688 C 549.5 433.75 549.332031 433.539062 549.191406 433.308594 C 549.054688 433.082031 548.929688 432.847656 548.820312 432.601562 C 548.699219 432.289062 548.605469 431.964844 548.535156 431.636719 C 548.46875 431.371094 548.429688 431.105469 548.410156 430.832031 C 548.347656 430.164062 548.347656 429.492188 548.410156 428.824219 C 548.410156 428.679688 548.4375 428.539062 548.453125 428.394531 C 548.453125 428.355469 548.453125 428.199219 548.496094 428.152344 C 548.539062 427.863281 548.597656 427.582031 548.667969 427.285156 C 548.792969 426.703125 548.953125 426.128906 549.148438 425.566406 C 549.246094 425.289062 549.347656 424.992188 549.457031 424.746094 C 549.457031 424.71875 549.457031 424.691406 549.457031 424.660156 L 549.496094 424.582031 C 549.558594 424.4375 549.621094 424.289062 549.691406 424.144531 C 550.195312 423.074219 550.78125 422.046875 551.441406 421.066406 C 551.777344 420.5625 552.125 420.070312 552.492188 419.585938 C 552.792969 419.175781 553.0625 418.816406 553.492188 418.304688 C 554.277344 417.335938 555.097656 416.398438 555.925781 415.441406 C 557.59375 413.550781 559.300781 411.691406 560.855469 409.714844 C 562.582031 407.65625 563.992188 405.398438 565.082031 402.941406 C 566.171875 400.484375 566.902344 397.925781 567.273438 395.265625 C 568.140625 389.726562 567.882812 384.113281 567.664062 378.539062 C 567.554688 375.753906 567.457031 372.972656 567.515625 370.191406 C 567.550781 368.820312 567.613281 367.457031 567.746094 366.09375 C 567.859375 364.824219 568.050781 363.566406 568.316406 362.316406 C 568.796875 359.808594 569.617188 357.421875 570.785156 355.152344 C 570.871094 354.992188 570.925781 354.820312 570.949219 354.640625 C 570.972656 354.460938 570.960938 354.28125 570.914062 354.105469 C 570.867188 353.925781 570.789062 353.765625 570.679688 353.617188 C 570.574219 353.472656 570.441406 353.347656 570.285156 353.253906 C 570.128906 353.160156 569.957031 353.105469 569.777344 353.082031 C 569.59375 353.058594 569.414062 353.070312 569.238281 353.117188 C 569.058594 353.160156 568.898438 353.238281 568.753906 353.351562 C 568.605469 353.460938 568.484375 353.59375 568.390625 353.75 C 565.707031 358.871094 564.875 364.628906 564.761719 370.355469 C 564.648438 376.082031 565.195312 381.808594 565.128906 387.535156 C 565.140625 390.296875 564.914062 393.039062 564.445312 395.761719 C 563.964844 398.425781 563.097656 400.957031 561.847656 403.355469 C 559.429688 407.878906 555.792969 411.34375 552.433594 415.300781 C 549.074219 419.253906 546.085938 423.628906 545.625 428.933594 C 545.367188 431.972656 546.265625 435.269531 549.0625 436.878906 C 551.71875 438.410156 555.1875 438.253906 558.023438 437.328125 C 564.101562 435.339844 568.132812 430.226562 571.832031 425.300781 C 573.648438 422.722656 575.691406 420.34375 577.964844 418.15625 C 580.109375 416.25 582.476562 414.679688 585.066406 413.445312 C 590.21875 410.90625 596.148438 409.578125 601.914062 408.714844 C 608.578125 407.71875 615.324219 407.277344 621.957031 405.976562 C 627.949219 404.796875 633.859375 402.863281 638.933594 399.378906 C 643.511719 396.261719 647.335938 392.074219 649.382812 386.886719 C 651.546875 381.394531 651.058594 375.296875 648.621094 369.988281 C 647.332031 367.28125 645.617188 364.882812 643.46875 362.789062 C 641.320312 360.695312 638.878906 359.042969 636.136719 357.828125 C 633.261719 356.535156 630.257812 355.695312 627.132812 355.308594 C 624.011719 354.90625 620.925781 355.117188 617.796875 355.34375 C 616.160156 355.484375 614.523438 355.515625 612.878906 355.4375 C 612.140625 355.402344 611.410156 355.300781 610.6875 355.136719 C 610.335938 355.0625 609.996094 354.96875 609.652344 354.859375 L 609.078125 354.660156 L 608.695312 354.507812 C 606.640625 353.519531 604.867188 352.167969 603.375 350.445312 C 605.128906 348.730469 606.769531 346.894531 608.449219 345.171875 C 610.363281 343.070312 612.578125 341.351562 615.089844 340.019531 C 615.246094 339.925781 615.378906 339.804688 615.492188 339.660156 C 615.601562 339.511719 615.679688 339.351562 615.726562 339.171875 C 615.769531 338.996094 615.78125 338.816406 615.757812 338.636719 C 615.734375 338.453125 615.679688 338.285156 615.589844 338.125 C 615.492188 337.96875 615.371094 337.835938 615.222656 337.726562 C 615.078125 337.617188 614.914062 337.539062 614.738281 337.492188 C 614.5625 337.445312 614.382812 337.433594 614.199219 337.457031 C 614.019531 337.480469 613.847656 337.535156 613.6875 337.625 C 608.707031 340.097656 605.4375 344.65625 601.539062 348.449219 C 600.074219 346.667969 598.445312 345.058594 596.652344 343.617188 C 594.566406 342.074219 592.238281 341.148438 589.664062 340.84375 C 588.449219 340.660156 587.253906 340.746094 586.082031 341.09375 C 584.90625 341.445312 583.859375 342.03125 582.945312 342.847656 C 582.496094 343.289062 582.113281 343.785156 581.796875 344.332031 C 581.484375 344.878906 581.25 345.460938 581.09375 346.070312 C 580.941406 346.683594 580.871094 347.304688 580.886719 347.9375 C 580.90625 348.566406 581.007812 349.183594 581.195312 349.789062 Z M 584.972656 351.152344 C 584.859375 351.011719 584.949219 351.128906 584.972656 351.152344 Z M 583.917969 346.1875 Z M 583.671875 347.113281 C 583.671875 347.195312 583.671875 347.199219 583.671875 347.113281 Z M 583.671875 347.257812 C 583.675781 347.207031 583.675781 347.152344 583.671875 347.101562 C 583.726562 346.863281 583.777344 346.628906 583.851562 346.390625 C 583.851562 346.324219 583.902344 346.253906 583.925781 346.179688 C 583.949219 346.105469 584.046875 345.933594 584.113281 345.808594 L 584.316406 345.476562 L 584.445312 345.292969 C 584.609375 345.089844 584.785156 344.898438 584.980469 344.71875 C 585.042969 344.664062 585.109375 344.601562 585.183594 344.542969 L 585.34375 344.421875 C 585.574219 344.269531 585.808594 344.136719 586.054688 344.015625 C 586.105469 344.015625 586.210938 343.949219 586.238281 343.9375 L 586.484375 343.851562 C 586.75 343.765625 587.019531 343.695312 587.292969 343.636719 L 587.554688 343.59375 L 587.761719 343.59375 C 588.050781 343.566406 588.339844 343.554688 588.632812 343.5625 C 588.882812 343.5625 589.136719 343.5625 589.386719 343.605469 L 589.617188 343.605469 L 590.046875 343.679688 C 590.609375 343.789062 591.167969 343.933594 591.710938 344.121094 C 591.953125 344.199219 592.179688 344.285156 592.417969 344.382812 L 592.695312 344.503906 L 593.125 344.703125 C 593.648438 344.964844 594.152344 345.257812 594.636719 345.578125 C 594.84375 345.714844 595.042969 345.859375 595.246094 346.007812 L 595.46875 346.1875 L 595.8125 346.484375 C 596.308594 346.929688 596.789062 347.398438 597.253906 347.886719 C 598.011719 348.664062 598.738281 349.480469 599.457031 350.292969 C 597.742188 351.777344 595.808594 352.882812 593.660156 353.605469 C 592.378906 354.007812 591.074219 354.152344 589.738281 354.035156 L 589.582031 354.035156 L 589.199219 353.960938 C 588.898438 353.894531 588.601562 353.804688 588.3125 353.699219 L 588.09375 353.617188 L 587.796875 353.480469 C 587.515625 353.34375 587.246094 353.191406 586.984375 353.023438 C 586.769531 352.890625 586.566406 352.75 586.363281 352.597656 C 586.324219 352.558594 586.167969 352.433594 586.140625 352.410156 C 586.019531 352.308594 585.90625 352.203125 585.796875 352.09375 C 585.597656 351.914062 585.40625 351.722656 585.226562 351.523438 C 585.128906 351.414062 585.035156 351.300781 584.945312 351.183594 L 584.789062 350.980469 C 584.648438 350.761719 584.503906 350.542969 584.378906 350.320312 C 584.304688 350.1875 584.234375 350.058594 584.164062 349.925781 C 584.164062 349.878906 584.078125 349.730469 584.050781 349.679688 C 583.863281 349.214844 583.730469 348.738281 583.648438 348.246094 C 583.648438 348.203125 583.648438 348.121094 583.648438 348.070312 C 583.648438 348.019531 583.648438 347.828125 583.648438 347.710938 C 583.648438 347.589844 583.65625 347.394531 583.660156 347.257812 Z M 583.671875 347.257812 " fill-opacity="1" fill-rule="nonzero"/><path fill="#3a5a40" d="M 633.355469 461.339844 C 633.714844 461.339844 634.078125 461.339844 634.429688 461.339844 C 634.726562 461.332031 635.019531 461.351562 635.3125 461.398438 L 635.398438 461.398438 L 635.589844 461.433594 C 635.777344 461.472656 635.960938 461.519531 636.160156 461.570312 C 636.308594 461.609375 636.457031 461.65625 636.601562 461.714844 L 636.660156 461.714844 L 636.773438 461.765625 C 636.90625 461.828125 637.035156 461.898438 637.164062 461.976562 L 637.347656 462.097656 C 637.457031 462.191406 637.5625 462.289062 637.660156 462.394531 L 637.773438 462.519531 C 637.851562 462.636719 637.925781 462.746094 637.988281 462.863281 C 638.050781 462.984375 638.054688 462.992188 638.085938 463.054688 C 638.085938 463.066406 638.085938 463.082031 638.085938 463.09375 C 638.136719 463.269531 638.222656 463.429688 638.335938 463.570312 C 638.453125 463.714844 638.589844 463.832031 638.75 463.921875 C 638.910156 464.011719 639.078125 464.070312 639.261719 464.09375 C 639.445312 464.117188 639.625 464.105469 639.800781 464.0625 C 639.980469 464.011719 640.140625 463.929688 640.285156 463.8125 C 640.429688 463.699219 640.546875 463.5625 640.636719 463.402344 C 640.730469 463.242188 640.785156 463.070312 640.808594 462.886719 C 640.832031 462.703125 640.816406 462.523438 640.769531 462.34375 C 640.488281 461.570312 640.058594 460.890625 639.476562 460.308594 C 638.890625 459.726562 638.210938 459.300781 637.4375 459.023438 C 636.007812 458.523438 634.539062 458.359375 633.035156 458.523438 C 631.503906 458.714844 629.996094 459.011719 628.511719 459.417969 C 628.148438 459.496094 627.789062 459.578125 627.421875 459.640625 C 627.246094 459.675781 627.0625 459.710938 626.878906 459.734375 L 626.660156 459.765625 L 626.476562 459.765625 C 625.742188 459.882812 625 459.925781 624.257812 459.894531 L 624.023438 459.894531 C 623.855469 459.863281 623.695312 459.824219 623.535156 459.785156 C 623.375 459.742188 623.21875 459.695312 623.066406 459.636719 L 622.980469 459.601562 L 622.910156 459.601562 L 622.785156 459.527344 C 622.640625 459.453125 622.511719 459.359375 622.375 459.28125 L 622.222656 459.152344 C 622.105469 459.039062 621.996094 458.914062 621.878906 458.800781 L 621.6875 458.496094 C 621.621094 458.386719 621.566406 458.273438 621.507812 458.15625 L 621.507812 458.125 C 621.421875 457.914062 621.351562 457.699219 621.296875 457.480469 C 621.175781 457.054688 621.089844 456.605469 621.011719 456.164062 C 620.890625 455.300781 620.699219 454.453125 620.4375 453.621094 C 619.882812 452.15625 619.058594 450.859375 617.964844 449.738281 C 616.867188 448.617188 615.59375 447.761719 614.140625 447.175781 C 612.65625 446.53125 611.105469 446.140625 609.492188 446.003906 C 607.882812 445.863281 606.289062 445.984375 604.714844 446.363281 C 601.046875 447.261719 597.808594 449.367188 594.980469 451.847656 C 592.265625 454.242188 590.011719 457.046875 587.617188 459.742188 C 586.441406 461.089844 585.183594 462.355469 583.839844 463.535156 L 583.359375 463.933594 L 583.101562 464.140625 L 583.042969 464.183594 C 582.675781 464.457031 582.300781 464.753906 581.898438 464.976562 C 581.140625 465.472656 580.351562 465.898438 579.523438 466.261719 L 579.480469 466.261719 L 579.402344 466.289062 L 579.070312 466.414062 L 578.332031 466.671875 C 577.855469 466.828125 577.375 466.957031 576.894531 467.078125 C 575.898438 467.324219 574.890625 467.507812 573.882812 467.652344 C 571.921875 467.921875 569.976562 468.285156 568.054688 468.75 C 564.828125 469.628906 561.53125 471.402344 559.792969 474.363281 C 559.355469 475.101562 559.039062 475.890625 558.847656 476.726562 C 558.796875 476.90625 558.785156 477.085938 558.808594 477.265625 C 558.832031 477.449219 558.886719 477.621094 558.980469 477.78125 C 559.070312 477.9375 559.1875 478.074219 559.332031 478.1875 C 559.476562 478.300781 559.636719 478.382812 559.816406 478.429688 C 559.992188 478.480469 560.171875 478.492188 560.355469 478.46875 C 560.535156 478.449219 560.707031 478.390625 560.867188 478.300781 C 561.027344 478.210938 561.164062 478.09375 561.277344 477.949219 C 561.390625 477.804688 561.472656 477.644531 561.519531 477.464844 C 561.597656 477.140625 561.695312 476.820312 561.8125 476.503906 C 561.8125 476.539062 561.9375 476.210938 561.972656 476.144531 C 562.074219 475.949219 562.183594 475.757812 562.300781 475.570312 C 562.398438 475.417969 562.5 475.265625 562.601562 475.117188 L 562.785156 474.894531 C 563.039062 474.601562 563.308594 474.328125 563.59375 474.070312 C 563.730469 473.945312 563.875 473.824219 564.015625 473.703125 L 564.132812 473.617188 L 564.273438 473.507812 C 564.601562 473.28125 564.9375 473.0625 565.28125 472.863281 C 565.625 472.660156 565.957031 472.488281 566.300781 472.324219 L 566.777344 472.113281 L 566.875 472.066406 L 567.253906 471.921875 C 570.777344 470.601562 574.625 470.570312 578.238281 469.574219 C 580.097656 469.070312 581.835938 468.289062 583.445312 467.226562 C 584.957031 466.203125 586.351562 465.035156 587.625 463.722656 C 590.097656 461.234375 592.203125 458.425781 594.671875 455.914062 C 595.300781 455.261719 595.949219 454.628906 596.625 454.023438 C 596.929688 453.75 597.238281 453.484375 597.546875 453.222656 L 598.042969 452.808594 L 598.296875 452.609375 L 598.359375 452.558594 L 598.421875 452.519531 C 599.820312 451.445312 601.320312 450.542969 602.921875 449.816406 L 603.078125 449.753906 L 603.289062 449.667969 L 603.863281 449.449219 C 604.28125 449.300781 604.703125 449.171875 605.132812 449.058594 C 605.5625 448.945312 605.878906 448.875 606.277344 448.808594 C 606.359375 448.808594 606.90625 448.671875 606.523438 448.765625 C 606.726562 448.726562 606.933594 448.707031 607.144531 448.703125 C 607.839844 448.648438 608.539062 448.648438 609.238281 448.703125 L 609.757812 448.753906 L 609.804688 448.753906 L 610.011719 448.785156 C 610.394531 448.851562 610.765625 448.925781 611.15625 449.023438 C 611.546875 449.121094 611.828125 449.207031 612.152344 449.324219 L 612.644531 449.5 L 612.835938 449.574219 L 612.867188 449.574219 L 612.929688 449.601562 C 613.570312 449.894531 614.179688 450.230469 614.765625 450.617188 L 615.085938 450.851562 L 615.363281 451.070312 C 615.640625 451.308594 615.910156 451.5625 616.160156 451.824219 C 616.273438 451.945312 616.382812 452.070312 616.492188 452.195312 L 616.617188 452.347656 C 616.808594 452.613281 616.996094 452.882812 617.164062 453.171875 C 617.308594 453.433594 617.445312 453.703125 617.5625 453.976562 C 617.5625 454.058594 617.667969 454.242188 617.691406 454.296875 C 617.753906 454.492188 617.816406 454.6875 617.867188 454.871094 C 618.101562 455.746094 618.195312 456.652344 618.386719 457.535156 C 618.535156 458.417969 618.855469 459.234375 619.355469 459.980469 C 619.855469 460.726562 620.488281 461.332031 621.25 461.804688 C 624.035156 463.367188 627.550781 462.617188 630.476562 461.839844 C 631.152344 461.625 631.847656 461.480469 632.554688 461.40625 C 632.160156 461.433594 632.707031 461.40625 632.800781 461.40625 Z M 583.101562 463.980469 Z M 621.394531 457.945312 C 621.367188 457.894531 621.394531 457.910156 621.394531 457.945312 Z M 622.90625 459.53125 L 623.03125 459.582031 C 623.03125 459.582031 622.957031 459.5625 622.90625 459.53125 Z M 624.089844 459.863281 L 624.207031 459.863281 C 624.167969 459.882812 624.128906 459.890625 624.089844 459.894531 Z M 624.089844 459.863281 " fill-opacity="1" fill-rule="nonzero"/><path fill="#3a5a40" d="M 501.894531 413.414062 L 501.847656 413.472656 C 501.796875 413.511719 501.726562 413.671875 501.894531 413.414062 Z M 501.894531 413.414062 " fill-opacity="1" fill-rule="nonzero"/><path fill="#3a5a40" d="M 502.832031 407.867188 C 502.597656 408.128906 502.773438 407.941406 502.832031 407.867188 Z M 502.832031 407.867188 " fill-opacity="1" fill-rule="nonzero"/><path fill="#3a5a40" d="M 499.09375 418.980469 C 499.171875 418.664062 499.105469 418.871094 499.09375 418.980469 Z M 499.09375 418.980469 " fill-opacity="1" fill-rule="nonzero"/><path fill="#3a5a40" d="M 597.53125 261.921875 L 597.570312 261.832031 Z M 597.53125 261.921875 " fill-opacity="1" fill-rule="nonzero"/><g clip-path="url(#5c7bf76fc2)"><path fill="#3a5a40" d="M 604.824219 308.152344 C 608.976562 314.910156 613.378906 321.507812 617.511719 328.273438 C 618.101562 329.242188 618.6875 330.210938 619.277344 331.191406 C 619.339844 331.292969 619.414062 331.386719 619.5 331.46875 C 619.585938 331.550781 619.679688 331.621094 619.785156 331.679688 C 619.890625 331.742188 620 331.785156 620.117188 331.816406 C 620.234375 331.84375 620.351562 331.859375 620.472656 331.859375 C 620.59375 331.859375 620.710938 331.84375 620.828125 331.816406 C 620.941406 331.785156 621.054688 331.742188 621.15625 331.679688 C 621.261719 331.621094 621.359375 331.550781 621.445312 331.46875 C 621.53125 331.386719 621.605469 331.292969 621.667969 331.191406 C 625.761719 325.203125 629.472656 318.988281 632.800781 312.546875 C 634.398438 309.550781 635.953125 306.535156 637.546875 303.539062 C 639.195312 300.4375 640.808594 297.347656 642.125 294.097656 C 644.828125 287.550781 646.476562 280.746094 647.074219 273.691406 C 647.382812 270.332031 647.382812 266.976562 647.074219 263.617188 C 646.835938 260.773438 646.113281 258.0625 644.910156 255.476562 C 643.683594 252.984375 641.925781 250.949219 639.636719 249.378906 C 636.945312 247.585938 633.988281 246.535156 630.765625 246.226562 C 629.160156 246.046875 627.5625 246.109375 625.976562 246.410156 C 624.386719 246.707031 622.875 247.234375 621.445312 247.984375 C 620.027344 248.789062 618.714844 249.742188 617.519531 250.847656 C 616.398438 251.847656 615.375 252.933594 614.441406 254.113281 C 610.554688 259.035156 608.34375 265.277344 609.113281 271.582031 C 609.855469 277.617188 613.058594 283.910156 618.679688 286.738281 C 621.320312 288.066406 624.578125 288.742188 627.410156 287.609375 C 630.664062 286.308594 632.386719 283.269531 633.355469 280.058594 C 634.324219 276.84375 634.671875 273.058594 633.519531 269.75 C 633 268.195312 632.167969 266.832031 631.027344 265.65625 C 629.886719 264.484375 628.546875 263.613281 627.011719 263.042969 C 625.542969 262.53125 624.050781 262.433594 622.527344 262.746094 C 622.347656 262.796875 622.1875 262.878906 622.042969 262.992188 C 621.894531 263.105469 621.777344 263.242188 621.6875 263.40625 C 621.597656 263.566406 621.539062 263.738281 621.519531 263.921875 C 621.496094 264.105469 621.511719 264.285156 621.558594 264.464844 C 621.613281 264.640625 621.695312 264.800781 621.8125 264.945312 C 621.925781 265.089844 622.0625 265.207031 622.222656 265.296875 C 622.382812 265.386719 622.554688 265.445312 622.738281 265.46875 C 622.917969 265.496094 623.097656 265.484375 623.277344 265.4375 C 623.335938 265.4375 623.636719 265.386719 623.621094 265.382812 L 624.027344 265.382812 C 624.328125 265.378906 624.628906 265.390625 624.925781 265.421875 L 625.265625 265.476562 C 625.429688 265.511719 625.589844 265.546875 625.75 265.59375 L 626.164062 265.726562 L 626.53125 265.863281 C 627.113281 266.121094 627.660156 266.441406 628.171875 266.824219 L 628.441406 267.042969 L 628.773438 267.339844 C 629.039062 267.589844 629.289062 267.855469 629.523438 268.136719 L 629.667969 268.320312 L 629.703125 268.359375 C 629.789062 268.484375 629.875 268.605469 629.953125 268.730469 C 630.15625 269.03125 630.335938 269.34375 630.496094 269.667969 C 630.632812 269.921875 630.746094 270.1875 630.835938 270.460938 C 630.972656 270.855469 631.09375 271.257812 631.191406 271.664062 C 631.367188 272.359375 631.464844 273.066406 631.476562 273.785156 C 631.503906 274.585938 631.472656 275.386719 631.378906 276.179688 C 631.378906 276.253906 631.378906 276.328125 631.378906 276.402344 C 631.378906 276.425781 631.378906 276.445312 631.378906 276.464844 C 631.34375 276.667969 631.316406 276.863281 631.277344 277.039062 C 631.207031 277.433594 631.121094 277.824219 631.023438 278.21875 C 630.839844 278.972656 630.613281 279.71875 630.34375 280.445312 C 630.28125 280.625 630.210938 280.800781 630.144531 280.972656 L 630.144531 281.007812 L 629.984375 281.242188 C 629.808594 281.601562 629.621094 281.953125 629.410156 282.296875 C 629.097656 282.890625 628.695312 283.417969 628.203125 283.875 C 628.070312 284.003906 627.9375 284.121094 627.796875 284.242188 L 627.761719 284.242188 L 627.601562 284.355469 C 627.316406 284.554688 627.015625 284.730469 626.703125 284.878906 L 626.574219 284.941406 L 626.535156 284.941406 L 626.082031 285.09375 C 625.761719 285.1875 625.4375 285.261719 625.109375 285.3125 L 624.921875 285.3125 C 624.761719 285.3125 624.601562 285.3125 624.433594 285.3125 C 624.089844 285.320312 623.742188 285.308594 623.398438 285.277344 L 623.117188 285.246094 L 622.722656 285.171875 C 622.390625 285.105469 622.0625 285.019531 621.742188 284.929688 C 621.421875 284.839844 621.097656 284.710938 620.777344 284.589844 L 620.707031 284.675781 L 620.546875 284.601562 C 620.386719 284.535156 620.230469 284.460938 620.078125 284.378906 C 619.460938 284.070312 618.871094 283.714844 618.308594 283.316406 L 618.023438 283.097656 L 617.683594 282.824219 C 617.421875 282.597656 617.167969 282.363281 616.929688 282.125 C 616.429688 281.625 615.957031 281.097656 615.519531 280.542969 L 615.484375 280.496094 L 615.324219 280.28125 L 615.015625 279.851562 C 614.816406 279.558594 614.625 279.277344 614.441406 278.953125 C 614.070312 278.34375 613.738281 277.71875 613.441406 277.074219 L 613.253906 276.648438 L 613.132812 276.363281 C 612.996094 276.015625 612.867188 275.660156 612.75 275.296875 C 612.519531 274.621094 612.328125 273.933594 612.175781 273.238281 C 612.105469 272.910156 612.042969 272.578125 611.988281 272.253906 C 611.953125 272.074219 611.929688 271.898438 611.902344 271.71875 C 611.902344 271.605469 611.902344 271.484375 611.855469 271.371094 C 611.78125 270.660156 611.742188 269.945312 611.734375 269.230469 C 611.730469 268.511719 611.761719 267.800781 611.832031 267.085938 L 611.882812 266.625 L 611.882812 266.582031 L 611.917969 266.332031 C 611.976562 265.972656 612.039062 265.617188 612.113281 265.265625 C 612.261719 264.554688 612.445312 263.859375 612.65625 263.171875 C 612.757812 262.851562 612.867188 262.53125 612.984375 262.214844 C 613.046875 262.042969 613.109375 261.875 613.175781 261.703125 C 613.207031 261.625 613.242188 261.539062 613.273438 261.457031 L 613.273438 261.351562 C 613.84375 260.019531 614.53125 258.75 615.335938 257.546875 C 615.519531 257.265625 615.714844 256.976562 615.910156 256.710938 C 616.011719 256.5625 616.121094 256.417969 616.230469 256.277344 L 616.292969 256.191406 L 616.476562 255.96875 C 616.929688 255.394531 617.402344 254.855469 617.90625 254.328125 C 618.410156 253.804688 618.898438 253.332031 619.417969 252.863281 C 619.6875 252.625 619.992188 252.390625 620.242188 252.152344 L 620.667969 251.816406 L 620.742188 251.757812 L 620.925781 251.621094 C 621.515625 251.175781 622.140625 250.773438 622.792969 250.417969 C 623.101562 250.25 623.414062 250.097656 623.734375 249.957031 C 623.792969 249.957031 623.980469 249.859375 624.015625 249.839844 L 624.589844 249.632812 C 625.28125 249.40625 625.984375 249.230469 626.703125 249.109375 L 627.066406 249.054688 C 627.226562 249.035156 627.390625 249.015625 627.550781 249.003906 C 627.910156 248.96875 628.277344 248.953125 628.644531 248.949219 C 631.519531 248.894531 634.230469 249.542969 636.773438 250.894531 C 637.347656 251.203125 637.902344 251.546875 638.433594 251.925781 L 638.753906 252.164062 L 638.933594 252.3125 C 639.191406 252.527344 639.4375 252.746094 639.671875 252.96875 C 640.097656 253.371094 640.492188 253.804688 640.863281 254.261719 C 640.90625 254.320312 640.953125 254.371094 640.992188 254.425781 C 641.066406 254.535156 641.152344 254.640625 641.226562 254.742188 C 641.410156 255.003906 641.589844 255.273438 641.753906 255.542969 C 642.074219 256.058594 642.363281 256.589844 642.621094 257.140625 C 642.683594 257.277344 642.738281 257.421875 642.808594 257.558594 C 642.828125 257.605469 642.847656 257.648438 642.867188 257.695312 C 642.992188 258 643.105469 258.308594 643.207031 258.617188 C 643.617188 259.832031 643.921875 261.070312 644.125 262.335938 C 644.125 262.476562 644.164062 262.621094 644.1875 262.765625 C 644.1875 262.816406 644.1875 262.867188 644.1875 262.917969 C 644.191406 262.949219 644.191406 262.980469 644.1875 263.011719 C 644.226562 263.34375 644.269531 263.675781 644.296875 264.011719 C 644.367188 264.75 644.40625 265.5 644.433594 266.246094 C 644.496094 267.90625 644.496094 269.566406 644.433594 271.222656 C 644.304688 274.472656 643.910156 277.691406 643.253906 280.875 C 642.589844 284.136719 641.6875 287.335938 640.558594 290.464844 C 639.460938 293.515625 638.148438 296.46875 636.625 299.332031 C 635.140625 302.136719 633.640625 304.941406 632.164062 307.753906 C 629.007812 313.777344 625.792969 319.777344 622.121094 325.503906 C 621.59375 326.328125 621.050781 327.152344 620.5 327.964844 C 616.671875 321.667969 612.644531 315.5 608.722656 309.265625 C 606.949219 306.4375 605.207031 303.585938 603.570312 300.675781 C 602.808594 299.300781 602.070312 297.90625 601.371094 296.492188 C 601.035156 295.8125 600.710938 295.125 600.390625 294.429688 L 599.980469 293.5 L 599.757812 292.984375 L 599.710938 292.882812 C 599.710938 292.847656 599.601562 292.621094 599.589844 292.589844 C 598.453125 289.835938 597.542969 287.007812 596.859375 284.105469 C 596.503906 282.617188 596.210938 281.105469 595.988281 279.585938 L 595.921875 279.105469 C 595.921875 279.105469 595.878906 278.796875 595.867188 278.726562 C 595.816406 278.308594 595.773438 277.890625 595.726562 277.472656 C 595.644531 276.667969 595.578125 275.855469 595.53125 275.035156 C 595.414062 273.371094 595.414062 271.710938 595.53125 270.046875 C 595.53125 269.660156 595.601562 269.273438 595.644531 268.902344 C 595.644531 268.828125 595.695312 268.554688 595.644531 268.84375 L 595.679688 268.597656 C 595.714844 268.359375 595.753906 268.117188 595.800781 267.871094 C 595.941406 267.066406 596.121094 266.269531 596.339844 265.476562 C 596.554688 264.6875 596.800781 263.902344 597.082031 263.136719 C 597.21875 262.746094 597.375 262.371094 597.53125 261.992188 C 597.546875 261.960938 597.558594 261.929688 597.570312 261.898438 C 597.597656 261.84375 597.621094 261.78125 597.648438 261.722656 C 597.742188 261.511719 597.832031 261.308594 597.929688 261.105469 C 598.628906 259.609375 599.445312 258.183594 600.375 256.820312 C 600.609375 256.484375 600.84375 256.144531 601.089844 255.8125 L 601.238281 255.617188 L 601.367188 255.453125 C 601.410156 255.394531 601.480469 255.304688 601.480469 255.308594 L 601.710938 255.023438 C 602.230469 254.382812 602.777344 253.761719 603.339844 253.167969 C 603.914062 252.59375 604.484375 252.023438 605.117188 251.449219 C 605.417969 251.175781 605.734375 250.910156 606.050781 250.648438 L 606.484375 250.300781 L 606.648438 250.167969 L 606.832031 250.023438 C 608.148438 249.035156 609.539062 248.164062 611 247.414062 C 611.363281 247.230469 611.734375 247.046875 612.105469 246.875 L 612.679688 246.628906 L 612.75 246.628906 L 613.027344 246.515625 C 613.789062 246.203125 614.570312 245.941406 615.351562 245.699219 C 616.136719 245.460938 616.945312 245.269531 617.753906 245.128906 C 617.929688 245.078125 618.09375 244.996094 618.238281 244.882812 C 618.382812 244.769531 618.5 244.628906 618.589844 244.46875 C 618.683594 244.308594 618.738281 244.136719 618.761719 243.953125 C 618.78125 243.769531 618.769531 243.589844 618.71875 243.410156 C 618.667969 243.234375 618.582031 243.074219 618.46875 242.929688 C 618.355469 242.789062 618.214844 242.671875 618.054688 242.578125 C 617.894531 242.488281 617.726562 242.433594 617.542969 242.410156 C 617.359375 242.386719 617.179688 242.398438 617.003906 242.441406 C 613.617188 243.164062 610.453125 244.433594 607.503906 246.246094 C 604.558594 248.054688 602 250.308594 599.824219 253 C 595.429688 258.367188 592.683594 265.105469 592.65625 272.09375 C 592.65625 278.605469 593.785156 284.917969 596.035156 291.027344 C 598.269531 297.003906 601.445312 302.675781 604.824219 308.152344 Z M 629.632812 268.265625 Z M 629.632812 268.265625 " fill-opacity="1" fill-rule="nonzero"/></g><g fill="#588157" fill-opacity="1"><g transform="translate(314.449466, 539.818238)"><g><path d="M 39.257812 0 L 39.257812 -11.285156 L 18.414062 -11.285156 L 38.632812 -56.027344 L 4.703125 -56.027344 L 4.703125 -45.136719 L 21.941406 -45.136719 C 15.203125 -30.167969 8.464844 -15.046875 1.722656 0 Z M 39.257812 0 "/></g></g></g><g fill="#588157" fill-opacity="1"><g transform="translate(356.369519, 539.818238)"><g><path d="M 33.226562 0.785156 C 71.78125 0.785156 71.78125 -56.96875 33.226562 -56.96875 C -5.328125 -56.96875 -5.328125 0.785156 33.226562 0.785156 Z M 33.226562 -10.8125 C 10.8125 -10.8125 10.8125 -45.449219 33.226562 -45.449219 C 55.636719 -45.449219 55.636719 -10.8125 33.226562 -10.8125 Z M 33.226562 -10.8125 "/></g></g></g><g fill="#588157" fill-opacity="1"><g transform="translate(422.736396, 539.818238)"><g><path d="M 33.226562 0.785156 C 71.78125 0.785156 71.78125 -56.96875 33.226562 -56.96875 C -5.328125 -56.96875 -5.328125 0.785156 33.226562 0.785156 Z M 33.226562 -10.8125 C 10.8125 -10.8125 10.8125 -45.449219 33.226562 -45.449219 C 55.636719 -45.449219 55.636719 -10.8125 33.226562 -10.8125 Z M 33.226562 -10.8125 "/></g></g></g><g fill="#588157" fill-opacity="1"><g transform="translate(176.812833, 459.688114)"><g><path d="M 12.6875 0.734375 C 11.21875 0.734375 9.863281 0.484375 8.625 -0.015625 C 7.382812 -0.515625 6.316406 -1.203125 5.421875 -2.078125 C 4.523438 -2.953125 3.828125 -3.984375 3.328125 -5.171875 C 2.828125 -6.359375 2.578125 -7.640625 2.578125 -9.015625 L 2.578125 -16.75 C 2.578125 -18.113281 2.828125 -19.390625 3.328125 -20.578125 C 3.828125 -21.773438 4.523438 -22.804688 5.421875 -23.671875 C 6.316406 -24.546875 7.382812 -25.234375 8.625 -25.734375 C 9.863281 -26.242188 11.21875 -26.5 12.6875 -26.5 C 13.894531 -26.5 14.957031 -26.351562 15.875 -26.0625 C 16.789062 -25.78125 17.597656 -25.421875 18.296875 -24.984375 C 19.003906 -24.546875 19.585938 -24.066406 20.046875 -23.546875 C 20.515625 -23.035156 20.882812 -22.546875 21.15625 -22.078125 L 21.421875 -21.5625 C 21.492188 -21.414062 21.554688 -21.25 21.609375 -21.0625 C 21.671875 -20.882812 21.703125 -20.734375 21.703125 -20.609375 C 21.703125 -19.628906 21.210938 -19.140625 20.234375 -19.140625 C 19.867188 -19.140625 19.585938 -19.257812 19.390625 -19.5 C 19.191406 -19.75 18.984375 -20.054688 18.765625 -20.421875 C 18.492188 -20.890625 18.179688 -21.332031 17.828125 -21.75 C 17.472656 -22.164062 17.050781 -22.53125 16.5625 -22.84375 C 16.070312 -23.164062 15.515625 -23.425781 14.890625 -23.625 C 14.265625 -23.820312 13.53125 -23.921875 12.6875 -23.921875 C 11.6875 -23.921875 10.742188 -23.734375 9.859375 -23.359375 C 8.972656 -22.992188 8.210938 -22.484375 7.578125 -21.828125 C 6.941406 -21.179688 6.4375 -20.421875 6.0625 -19.546875 C 5.695312 -18.679688 5.515625 -17.75 5.515625 -16.75 L 5.515625 -9.015625 C 5.515625 -8.003906 5.695312 -7.054688 6.0625 -6.171875 C 6.4375 -5.296875 6.941406 -4.535156 7.578125 -3.890625 C 8.210938 -3.253906 8.972656 -2.753906 9.859375 -2.390625 C 10.742188 -2.023438 11.6875 -1.84375 12.6875 -1.84375 C 13.570312 -1.84375 14.359375 -1.957031 15.046875 -2.1875 C 15.734375 -2.414062 16.335938 -2.710938 16.859375 -3.078125 C 17.390625 -3.453125 17.84375 -3.863281 18.21875 -4.3125 C 18.601562 -4.769531 18.910156 -5.234375 19.140625 -5.703125 C 19.328125 -6.066406 19.53125 -6.367188 19.75 -6.609375 C 19.976562 -6.859375 20.328125 -6.984375 20.796875 -6.984375 C 21.160156 -6.984375 21.460938 -6.851562 21.703125 -6.59375 C 21.953125 -6.34375 22.078125 -5.984375 22.078125 -5.515625 C 22.078125 -5.367188 22.046875 -5.207031 21.984375 -5.03125 C 21.921875 -4.863281 21.851562 -4.707031 21.78125 -4.5625 L 21.53125 -4.046875 C 21.257812 -3.535156 20.878906 -3.003906 20.390625 -2.453125 C 19.898438 -1.898438 19.289062 -1.382812 18.5625 -0.90625 C 17.84375 -0.425781 17 -0.0351562 16.03125 0.265625 C 15.0625 0.578125 13.945312 0.734375 12.6875 0.734375 Z M 12.6875 0.734375 "/></g></g></g><g fill="#588157" fill-opacity="1"><g transform="translate(203.604803, 459.688114)"><g><path d="M 12.875 0.734375 C 11.351562 0.734375 9.960938 0.484375 8.703125 -0.015625 C 7.441406 -0.515625 6.351562 -1.203125 5.4375 -2.078125 C 4.53125 -2.953125 3.828125 -3.984375 3.328125 -5.171875 C 2.828125 -6.359375 2.578125 -7.640625 2.578125 -9.015625 L 2.578125 -16.75 C 2.578125 -18.113281 2.828125 -19.390625 3.328125 -20.578125 C 3.828125 -21.773438 4.53125 -22.804688 5.4375 -23.671875 C 6.351562 -24.546875 7.441406 -25.234375 8.703125 -25.734375 C 9.960938 -26.242188 11.351562 -26.5 12.875 -26.5 C 14.394531 -26.5 15.785156 -26.242188 17.046875 -25.734375 C 18.316406 -25.234375 19.40625 -24.546875 20.3125 -23.671875 C 21.21875 -22.804688 21.921875 -21.773438 22.421875 -20.578125 C 22.929688 -19.390625 23.1875 -18.113281 23.1875 -16.75 L 23.1875 -9.015625 C 23.1875 -7.640625 22.929688 -6.359375 22.421875 -5.171875 C 21.921875 -3.984375 21.21875 -2.953125 20.3125 -2.078125 C 19.40625 -1.203125 18.316406 -0.515625 17.046875 -0.015625 C 15.785156 0.484375 14.394531 0.734375 12.875 0.734375 Z M 12.875 -1.84375 C 13.9375 -1.84375 14.910156 -2.023438 15.796875 -2.390625 C 16.691406 -2.753906 17.472656 -3.253906 18.140625 -3.890625 C 18.804688 -4.535156 19.320312 -5.296875 19.6875 -6.171875 C 20.050781 -7.054688 20.234375 -8.003906 20.234375 -9.015625 L 20.234375 -16.75 C 20.234375 -17.75 20.050781 -18.679688 19.6875 -19.546875 C 19.320312 -20.421875 18.804688 -21.179688 18.140625 -21.828125 C 17.472656 -22.484375 16.691406 -22.992188 15.796875 -23.359375 C 14.910156 -23.734375 13.9375 -23.921875 12.875 -23.921875 C 11.820312 -23.921875 10.847656 -23.734375 9.953125 -23.359375 C 9.054688 -22.992188 8.273438 -22.484375 7.609375 -21.828125 C 6.953125 -21.179688 6.4375 -20.421875 6.0625 -19.546875 C 5.695312 -18.679688 5.515625 -17.75 5.515625 -16.75 L 5.515625 -9.015625 C 5.515625 -8.003906 5.695312 -7.054688 6.0625 -6.171875 C 6.4375 -5.296875 6.953125 -4.535156 7.609375 -3.890625 C 8.273438 -3.253906 9.054688 -2.753906 9.953125 -2.390625 C 10.847656 -2.023438 11.820312 -1.84375 12.875 -1.84375 Z M 12.875 -1.84375 "/></g></g></g><g fill="#588157" fill-opacity="1"><g transform="translate(232.604899, 459.688114)"><g><path d="M 4.78125 0.375 C 4.3125 0.375 3.945312 0.222656 3.6875 -0.078125 C 3.4375 -0.390625 3.3125 -0.734375 3.3125 -1.109375 L 3.3125 -24.46875 C 3.3125 -24.9375 3.46875 -25.328125 3.78125 -25.640625 C 4.101562 -25.960938 4.5 -26.125 4.96875 -26.125 C 5.4375 -26.125 5.828125 -26 6.140625 -25.75 C 6.460938 -25.507812 6.742188 -25.207031 6.984375 -24.84375 L 20.046875 -5.15625 L 20.234375 -5.15625 L 20.234375 -24.65625 C 20.234375 -25.019531 20.363281 -25.351562 20.625 -25.65625 C 20.882812 -25.96875 21.242188 -26.125 21.703125 -26.125 C 22.171875 -26.125 22.535156 -25.96875 22.796875 -25.65625 C 23.054688 -25.351562 23.1875 -25.019531 23.1875 -24.65625 L 23.1875 -1.28125 C 23.1875 -0.820312 23.023438 -0.429688 22.703125 -0.109375 C 22.378906 0.210938 21.988281 0.375 21.53125 0.375 C 21.0625 0.375 20.664062 0.25 20.34375 0 C 20.03125 -0.25 19.75 -0.554688 19.5 -0.921875 L 6.4375 -20.609375 L 6.25 -20.609375 L 6.25 -1.109375 C 6.25 -0.734375 6.117188 -0.390625 5.859375 -0.078125 C 5.609375 0.222656 5.25 0.375 4.78125 0.375 Z M 4.78125 0.375 "/></g></g></g><g fill="#588157" fill-opacity="1"><g transform="translate(262.341038, 459.688114)"><g><path d="M 10.296875 0.375 C 9.835938 0.375 9.476562 0.222656 9.21875 -0.078125 C 8.957031 -0.390625 8.828125 -0.734375 8.828125 -1.109375 L 8.828125 -23.1875 L 1.84375 -23.1875 C 1.375 -23.1875 1.007812 -23.304688 0.75 -23.546875 C 0.5 -23.796875 0.375 -24.101562 0.375 -24.46875 C 0.375 -24.832031 0.5 -25.132812 0.75 -25.375 C 1.007812 -25.625 1.375 -25.75 1.84375 -25.75 L 18.765625 -25.75 C 19.234375 -25.75 19.59375 -25.625 19.84375 -25.375 C 20.101562 -25.132812 20.234375 -24.832031 20.234375 -24.46875 C 20.234375 -24.101562 20.101562 -23.796875 19.84375 -23.546875 C 19.59375 -23.304688 19.234375 -23.1875 18.765625 -23.1875 L 11.78125 -23.1875 L 11.78125 -1.109375 C 11.78125 -0.734375 11.648438 -0.390625 11.390625 -0.078125 C 11.128906 0.222656 10.765625 0.375 10.296875 0.375 Z M 10.296875 0.375 "/></g></g></g><g fill="#588157" fill-opacity="1"><g transform="translate(286.18884, 459.688114)"><g><path d="M 4.78125 0.375 C 4.3125 0.375 3.945312 0.222656 3.6875 -0.078125 C 3.4375 -0.390625 3.3125 -0.734375 3.3125 -1.109375 L 3.3125 -24.65625 C 3.3125 -25.019531 3.4375 -25.351562 3.6875 -25.65625 C 3.945312 -25.96875 4.3125 -26.125 4.78125 -26.125 C 5.25 -26.125 5.609375 -25.96875 5.859375 -25.65625 C 6.117188 -25.351562 6.25 -25.019531 6.25 -24.65625 L 6.25 -1.109375 C 6.25 -0.734375 6.117188 -0.390625 5.859375 -0.078125 C 5.609375 0.222656 5.25 0.375 4.78125 0.375 Z M 4.78125 0.375 "/></g></g></g><g fill="#588157" fill-opacity="1"><g transform="translate(298.996, 459.688114)"><g><path d="M 4.78125 0.375 C 4.3125 0.375 3.945312 0.222656 3.6875 -0.078125 C 3.4375 -0.390625 3.3125 -0.734375 3.3125 -1.109375 L 3.3125 -24.46875 C 3.3125 -24.9375 3.46875 -25.328125 3.78125 -25.640625 C 4.101562 -25.960938 4.5 -26.125 4.96875 -26.125 C 5.4375 -26.125 5.828125 -26 6.140625 -25.75 C 6.460938 -25.507812 6.742188 -25.207031 6.984375 -24.84375 L 20.046875 -5.15625 L 20.234375 -5.15625 L 20.234375 -24.65625 C 20.234375 -25.019531 20.363281 -25.351562 20.625 -25.65625 C 20.882812 -25.96875 21.242188 -26.125 21.703125 -26.125 C 22.171875 -26.125 22.535156 -25.96875 22.796875 -25.65625 C 23.054688 -25.351562 23.1875 -25.019531 23.1875 -24.65625 L 23.1875 -1.28125 C 23.1875 -0.820312 23.023438 -0.429688 22.703125 -0.109375 C 22.378906 0.210938 21.988281 0.375 21.53125 0.375 C 21.0625 0.375 20.664062 0.25 20.34375 0 C 20.03125 -0.25 19.75 -0.554688 19.5 -0.921875 L 6.4375 -20.609375 L 6.25 -20.609375 L 6.25 -1.109375 C 6.25 -0.734375 6.117188 -0.390625 5.859375 -0.078125 C 5.609375 0.222656 5.25 0.375 4.78125 0.375 Z M 4.78125 0.375 "/></g></g></g><g fill="#588157" fill-opacity="1"><g transform="translate(328.732146, 459.688114)"><g><path d="M 4.78125 0 C 4.3125 0 3.945312 -0.148438 3.6875 -0.453125 C 3.4375 -0.765625 3.3125 -1.101562 3.3125 -1.46875 L 3.3125 -24.28125 C 3.3125 -24.65625 3.4375 -24.992188 3.6875 -25.296875 C 3.945312 -25.597656 4.3125 -25.75 4.78125 -25.75 L 19.6875 -25.75 C 20.15625 -25.75 20.515625 -25.625 20.765625 -25.375 C 21.023438 -25.132812 21.15625 -24.832031 21.15625 -24.46875 C 21.15625 -24.101562 21.023438 -23.796875 20.765625 -23.546875 C 20.515625 -23.304688 20.15625 -23.1875 19.6875 -23.1875 L 6.25 -23.1875 L 6.25 -14.34375 L 16.1875 -14.34375 C 16.65625 -14.34375 17.015625 -14.21875 17.265625 -13.96875 C 17.523438 -13.726562 17.65625 -13.425781 17.65625 -13.0625 C 17.65625 -12.695312 17.523438 -12.390625 17.265625 -12.140625 C 17.015625 -11.898438 16.65625 -11.78125 16.1875 -11.78125 L 6.25 -11.78125 L 6.25 -2.578125 L 20.046875 -2.578125 C 20.515625 -2.578125 20.878906 -2.453125 21.140625 -2.203125 C 21.398438 -1.960938 21.53125 -1.65625 21.53125 -1.28125 C 21.53125 -0.914062 21.398438 -0.609375 21.140625 -0.359375 C 20.878906 -0.117188 20.515625 0 20.046875 0 Z M 4.78125 0 "/></g></g></g><g fill="#588157" fill-opacity="1"><g transform="translate(354.236049, 459.688114)"><g><path d="M 4.78125 0.375 C 4.3125 0.375 3.945312 0.222656 3.6875 -0.078125 C 3.4375 -0.390625 3.3125 -0.734375 3.3125 -1.109375 L 3.3125 -24.46875 C 3.3125 -24.9375 3.46875 -25.328125 3.78125 -25.640625 C 4.101562 -25.960938 4.5 -26.125 4.96875 -26.125 C 5.4375 -26.125 5.828125 -26 6.140625 -25.75 C 6.460938 -25.507812 6.742188 -25.207031 6.984375 -24.84375 L 20.046875 -5.15625 L 20.234375 -5.15625 L 20.234375 -24.65625 C 20.234375 -25.019531 20.363281 -25.351562 20.625 -25.65625 C 20.882812 -25.96875 21.242188 -26.125 21.703125 -26.125 C 22.171875 -26.125 22.535156 -25.96875 22.796875 -25.65625 C 23.054688 -25.351562 23.1875 -25.019531 23.1875 -24.65625 L 23.1875 -1.28125 C 23.1875 -0.820312 23.023438 -0.429688 22.703125 -0.109375 C 22.378906 0.210938 21.988281 0.375 21.53125 0.375 C 21.0625 0.375 20.664062 0.25 20.34375 0 C 20.03125 -0.25 19.75 -0.554688 19.5 -0.921875 L 6.4375 -20.609375 L 6.25 -20.609375 L 6.25 -1.109375 C 6.25 -0.734375 6.117188 -0.390625 5.859375 -0.078125 C 5.609375 0.222656 5.25 0.375 4.78125 0.375 Z M 4.78125 0.375 "/></g></g></g><g fill="#588157" fill-opacity="1"><g transform="translate(383.972196, 459.688114)"><g><path d="M 10.296875 0.375 C 9.835938 0.375 9.476562 0.222656 9.21875 -0.078125 C 8.957031 -0.390625 8.828125 -0.734375 8.828125 -1.109375 L 8.828125 -23.1875 L 1.84375 -23.1875 C 1.375 -23.1875 1.007812 -23.304688 0.75 -23.546875 C 0.5 -23.796875 0.375 -24.101562 0.375 -24.46875 C 0.375 -24.832031 0.5 -25.132812 0.75 -25.375 C 1.007812 -25.625 1.375 -25.75 1.84375 -25.75 L 18.765625 -25.75 C 19.234375 -25.75 19.59375 -25.625 19.84375 -25.375 C 20.101562 -25.132812 20.234375 -24.832031 20.234375 -24.46875 C 20.234375 -24.101562 20.101562 -23.796875 19.84375 -23.546875 C 19.59375 -23.304688 19.234375 -23.1875 18.765625 -23.1875 L 11.78125 -23.1875 L 11.78125 -1.109375 C 11.78125 -0.734375 11.648438 -0.390625 11.390625 -0.078125 C 11.128906 0.222656 10.765625 0.375 10.296875 0.375 Z M 10.296875 0.375 "/></g></g></g><g fill="#588157" fill-opacity="1"><g transform="translate(407.819998, 459.688114)"><g><path d="M 2.03125 0.375 C 1.5625 0.375 1.195312 0.222656 0.9375 -0.078125 C 0.675781 -0.390625 0.546875 -0.734375 0.546875 -1.109375 C 0.546875 -1.253906 0.570312 -1.425781 0.625 -1.625 C 0.644531 -1.71875 0.679688 -1.789062 0.734375 -1.84375 L 9.5625 -24.46875 C 9.863281 -25.207031 10.164062 -25.726562 10.46875 -26.03125 C 10.769531 -26.34375 11.207031 -26.5 11.78125 -26.5 C 12.34375 -26.5 12.773438 -26.34375 13.078125 -26.03125 C 13.390625 -25.726562 13.691406 -25.207031 13.984375 -24.46875 L 22.8125 -1.84375 C 22.832031 -1.789062 22.859375 -1.71875 22.890625 -1.625 C 22.910156 -1.550781 22.929688 -1.46875 22.953125 -1.375 C 22.984375 -1.289062 23 -1.203125 23 -1.109375 C 23 -0.734375 22.867188 -0.390625 22.609375 -0.078125 C 22.347656 0.222656 21.988281 0.375 21.53125 0.375 C 21.15625 0.375 20.859375 0.273438 20.640625 0.078125 C 20.421875 -0.117188 20.222656 -0.453125 20.046875 -0.921875 L 17.84375 -6.8125 L 5.703125 -6.8125 L 3.5 -0.921875 C 3.320312 -0.453125 3.125 -0.117188 2.90625 0.078125 C 2.6875 0.273438 2.394531 0.375 2.03125 0.375 Z M 16.75 -9.390625 L 11.84375 -22.453125 L 11.703125 -22.453125 L 6.8125 -9.390625 Z M 16.75 -9.390625 "/></g></g></g><g fill="#588157" fill-opacity="1"><g transform="translate(434.611972, 459.688114)"><g><path d="M 4.78125 0 C 4.3125 0 3.945312 -0.148438 3.6875 -0.453125 C 3.4375 -0.765625 3.3125 -1.101562 3.3125 -1.46875 L 3.3125 -24.65625 C 3.3125 -25.019531 3.4375 -25.351562 3.6875 -25.65625 C 3.945312 -25.96875 4.3125 -26.125 4.78125 -26.125 C 5.25 -26.125 5.609375 -25.96875 5.859375 -25.65625 C 6.117188 -25.351562 6.25 -25.019531 6.25 -24.65625 L 6.25 -2.578125 L 18.03125 -2.578125 C 18.5 -2.578125 18.859375 -2.453125 19.109375 -2.203125 C 19.367188 -1.960938 19.5 -1.65625 19.5 -1.28125 C 19.5 -0.914062 19.367188 -0.609375 19.109375 -0.359375 C 18.859375 -0.117188 18.5 0 18.03125 0 Z M 4.78125 0 "/></g></g></g></svg>