<svg xmlns="http://www.w3.org/2000/svg" xmlns:xlink="http://www.w3.org/1999/xlink" width="1080" zoomAndPan="magnify" viewBox="0 0 810 809.999993" height="1080" preserveAspectRatio="xMidYMid meet" version="1.0"><defs><filter x="0%" y="0%" width="100%" height="100%" id="e12f36e087"><feColorMatrix values="0 0 0 0 1 0 0 0 0 1 0 0 0 0 1 0 0 0 1 0" color-interpolation-filters="sRGB"/></filter><g/><mask id="d1c95f9c66"><g filter="url(#e12f36e087)"><rect x="-81" width="972" fill="#000000" y="-80.999999" height="971.999992" fill-opacity="0.25"/></g></mask><clipPath id="daa5e869e2"><path d="M 14 42 L 199 42 L 199 183 L 14 183 Z M 14 42 " clip-rule="nonzero"/></clipPath><clipPath id="4b8d13b3dd"><path d="M 233.585938 151.632812 L 43.414062 229.515625 L -24.234375 64.328125 L 165.9375 -13.550781 Z M 233.585938 151.632812 " clip-rule="nonzero"/></clipPath><clipPath id="71eb532ae1"><path d="M 233.585938 151.632812 L 43.414062 229.515625 L -24.234375 64.328125 L 165.9375 -13.550781 Z M 233.585938 151.632812 " clip-rule="nonzero"/></clipPath><clipPath id="17fdd8dd31"><rect x="0" width="211" y="0" height="213"/></clipPath><clipPath id="7a74feca2f"><path d="M 472 261 L 698 261 L 698 487.5 L 472 487.5 Z M 472 261 " clip-rule="nonzero"/></clipPath><clipPath id="7d14482f2c"><path d="M 592 242.25 L 648 242.25 L 648 333 L 592 333 Z M 592 242.25 " clip-rule="nonzero"/></clipPath></defs><g mask="url(#d1c95f9c66)"><g transform="matrix(1, 0, 0, 1, 439, 273)"><g clip-path="url(#17fdd8dd31)"><g clip-path="url(#daa5e869e2)"><g clip-path="url(#4b8d13b3dd)"><g clip-path="url(#71eb532ae1)"><path fill="#d9d9d9" d="M 83.324219 178.171875 C 48.554688 165.628906 -16.816406 82.097656 32.980469 49.300781 C 66.65625 27.109375 71.976562 62.578125 118.089844 90.308594 C 133.371094 99.480469 208.15625 89.882812 197.121094 137.207031 C 190.574219 165.25 128.792969 194.550781 83.324219 178.171875 Z M 83.324219 178.171875 " fill-opacity="1" fill-rule="nonzero"/></g></g></g></g></g></g><g clip-path="url(#7a74feca2f)"><path fill="#f8f9fa" d="M 652.371094 283.964844 C 652.222656 283.847656 652.058594 283.765625 651.878906 283.714844 C 651.699219 283.664062 651.515625 283.652344 651.332031 283.675781 C 651.144531 283.703125 650.972656 283.761719 650.8125 283.855469 C 650.648438 283.953125 650.511719 284.074219 650.402344 284.226562 C 650.289062 284.375 650.210938 284.542969 650.167969 284.722656 C 650.121094 284.90625 650.113281 285.089844 650.144531 285.273438 C 650.175781 285.460938 650.238281 285.632812 650.335938 285.792969 C 650.4375 285.949219 650.5625 286.082031 650.714844 286.191406 C 678.371094 306.808594 694.460938 338.527344 694.878906 373.222656 C 695.019531 384.730469 693.40625 395.988281 690.042969 406.992188 C 687.910156 409.710938 685.792969 412.4375 683.601562 415.105469 C 681.132812 418.179688 678.507812 421.117188 675.730469 423.914062 C 675.101562 424.53125 674.457031 425.132812 673.800781 425.714844 C 673.484375 426 673.164062 426.273438 672.839844 426.542969 L 672.386719 426.910156 L 672.195312 427.0625 C 672.34375 426.941406 672.152344 427.0625 672.113281 427.121094 C 670.527344 428.324219 668.820312 429.371094 667.191406 430.511719 C 665.410156 431.6875 663.808594 433.066406 662.382812 434.65625 C 661.007812 436.257812 660.039062 438.078125 659.484375 440.117188 C 658.960938 442.085938 658.84375 444.078125 659.144531 446.09375 C 659.441406 448.105469 660.128906 449.980469 661.203125 451.710938 C 661.488281 452.144531 661.804688 452.558594 662.128906 452.964844 C 659.605469 455.472656 656.964844 457.851562 654.210938 460.101562 C 651.453125 462.351562 648.59375 464.460938 645.632812 466.429688 C 642.667969 468.398438 639.617188 470.21875 636.480469 471.890625 C 633.339844 473.558594 630.125 475.070312 626.839844 476.425781 C 623.550781 477.78125 620.207031 478.972656 616.800781 480 C 613.398438 481.027344 609.953125 481.882812 606.464844 482.574219 C 602.976562 483.261719 599.464844 483.777344 595.929688 484.121094 C 592.390625 484.46875 588.84375 484.636719 585.289062 484.632812 L 585.101562 484.632812 C 581.585938 484.648438 578.082031 484.492188 574.582031 484.167969 C 571.082031 483.839844 567.605469 483.347656 564.152344 482.683594 C 560.703125 482.023438 557.289062 481.195312 553.917969 480.203125 C 550.546875 479.210938 547.230469 478.054688 543.96875 476.742188 C 540.707031 475.429688 537.519531 473.960938 534.398438 472.339844 C 531.277344 470.714844 528.246094 468.945312 525.296875 467.03125 C 522.347656 465.113281 519.496094 463.058594 516.746094 460.867188 C 513.996094 458.675781 511.355469 456.355469 508.828125 453.90625 C 509.660156 452.453125 510.300781 450.914062 510.746094 449.296875 C 511.195312 447.683594 511.4375 446.035156 511.472656 444.359375 C 511.507812 442.679688 511.332031 441.023438 510.953125 439.390625 C 510.574219 437.757812 510 436.195312 509.226562 434.707031 C 507.6875 431.757812 505.261719 429.542969 502.972656 427.210938 C 502.398438 426.640625 501.878906 426.066406 501.375 425.492188 L 501.027344 425.066406 L 500.992188 425.027344 C 500.941406 424.96875 500.894531 424.894531 500.847656 424.832031 C 500.625 424.53125 500.414062 424.222656 500.21875 423.902344 C 500.03125 423.601562 499.859375 423.296875 499.703125 422.976562 L 499.582031 422.714844 C 499.515625 422.535156 499.453125 422.359375 499.390625 422.175781 C 499.28125 421.839844 499.195312 421.5 499.132812 421.152344 C 499.132812 421.085938 499.097656 420.992188 499.089844 420.914062 L 499.089844 420.84375 C 499.089844 420.652344 499.089844 420.46875 499.058594 420.269531 C 499.058594 419.972656 499.058594 419.695312 499.097656 419.378906 C 499.097656 419.378906 499.097656 419.410156 499.097656 419.425781 C 499.117188 419.347656 499.128906 419.265625 499.136719 419.183594 C 499.136719 419.03125 499.195312 418.875 499.234375 418.71875 C 499.300781 418.433594 499.382812 418.152344 499.480469 417.875 C 499.53125 417.726562 499.589844 417.585938 499.640625 417.433594 L 499.726562 417.238281 C 500.273438 416.078125 500.9375 414.988281 501.71875 413.96875 C 501.769531 413.898438 501.828125 413.832031 501.871094 413.761719 L 502.148438 413.414062 L 502.8125 412.597656 C 503.234375 412.074219 503.664062 411.566406 504.082031 411.042969 C 504.980469 409.96875 505.804688 408.839844 506.550781 407.65625 C 508.015625 405.21875 508.757812 402.304688 507.855469 399.519531 C 506.785156 396.253906 503.949219 393.910156 500.953125 392.449219 C 497.390625 390.804688 493.648438 389.886719 489.730469 389.703125 C 485.753906 389.457031 481.855469 389.910156 478.039062 391.0625 C 477.539062 391.210938 477.054688 391.378906 476.574219 391.550781 C 475.753906 386.179688 475.328125 380.777344 475.289062 375.34375 C 475.179688 362.429688 477.28125 349.882812 481.585938 337.707031 C 481.890625 336.871094 482.292969 336.082031 482.789062 335.339844 C 483.28125 334.601562 483.859375 333.929688 484.511719 333.324219 C 485.167969 332.722656 485.886719 332.207031 486.667969 331.777344 C 487.445312 331.351562 488.265625 331.019531 489.125 330.789062 C 493.773438 329.484375 497.269531 329.472656 498.960938 330.789062 C 499.890625 331.492188 500.34375 332.652344 500.34375 334.316406 C 500.34375 339.769531 497.847656 344.996094 495.191406 350.535156 C 492.535156 356.070312 489.785156 361.867188 489.785156 367.949219 C 489.785156 371.253906 490.105469 374.769531 492.480469 375.757812 C 495.742188 377.113281 500.300781 373.292969 513.234375 360.324219 C 520.722656 352.816406 527.964844 351.140625 533.777344 349.769531 C 540.425781 348.222656 546.167969 346.902344 548.117188 337.640625 C 549.886719 329.246094 546.847656 321.164062 544.167969 314.03125 C 541.582031 307.148438 539.140625 300.679688 541.339844 295.097656 C 543.761719 288.945312 546.433594 286.378906 548.726562 284.675781 C 549.316406 284.246094 549.871094 283.773438 550.390625 283.257812 C 550.90625 282.742188 551.378906 282.1875 551.808594 281.59375 C 552.238281 281.003906 552.621094 280.378906 552.949219 279.726562 C 553.28125 279.074219 553.558594 278.398438 553.78125 277.703125 C 554.007812 277.003906 554.175781 276.296875 554.285156 275.570312 C 554.398438 274.847656 554.453125 274.121094 554.449219 273.386719 C 554.445312 272.65625 554.382812 271.929688 554.265625 271.207031 C 554.144531 270.484375 553.96875 269.773438 553.738281 269.078125 C 563.175781 266.273438 572.816406 264.765625 582.65625 264.550781 L 582.691406 264.550781 C 583.835938 264.550781 584.925781 264.519531 586.039062 264.550781 C 586.222656 264.550781 586.402344 264.515625 586.570312 264.445312 C 586.738281 264.375 586.890625 264.277344 587.019531 264.144531 C 587.148438 264.015625 587.25 263.867188 587.320312 263.695312 C 587.390625 263.523438 587.425781 263.347656 587.425781 263.164062 C 587.425781 262.980469 587.390625 262.800781 587.320312 262.632812 C 587.25 262.460938 587.148438 262.3125 587.019531 262.183594 C 586.890625 262.050781 586.738281 261.953125 586.570312 261.878906 C 586.402344 261.808594 586.222656 261.773438 586.039062 261.773438 L 584.816406 261.773438 C 580.972656 261.777344 577.140625 261.976562 573.320312 262.371094 C 569.5 262.769531 565.707031 263.359375 561.945312 264.144531 C 558.183594 264.929688 554.472656 265.902344 550.8125 267.070312 C 547.152344 268.234375 543.558594 269.585938 540.035156 271.121094 C 536.511719 272.65625 533.074219 274.367188 529.726562 276.253906 C 526.378906 278.140625 523.132812 280.195312 519.996094 282.417969 C 516.855469 284.636719 513.839844 287.011719 510.941406 289.542969 C 508.046875 292.074219 505.285156 294.746094 502.664062 297.558594 C 502.535156 297.691406 502.4375 297.847656 502.371094 298.019531 C 502.304688 298.191406 502.273438 298.371094 502.277344 298.558594 C 502.285156 298.742188 502.324219 298.921875 502.402344 299.089844 C 502.476562 299.257812 502.582031 299.40625 502.71875 299.535156 C 502.855469 299.660156 503.007812 299.757812 503.183594 299.820312 C 503.355469 299.886719 503.535156 299.914062 503.722656 299.90625 C 503.90625 299.898438 504.082031 299.855469 504.25 299.777344 C 504.417969 299.699219 504.566406 299.589844 504.6875 299.453125 C 511.039062 292.628906 518.140625 286.714844 525.992188 281.703125 C 533.847656 276.691406 542.199219 272.75 551.054688 269.871094 C 551.242188 270.429688 551.386719 271 551.484375 271.578125 C 551.585938 272.160156 551.636719 272.746094 551.640625 273.335938 C 551.648438 273.925781 551.605469 274.511719 551.515625 275.09375 C 551.429688 275.675781 551.296875 276.246094 551.117188 276.808594 C 550.9375 277.371094 550.714844 277.914062 550.449219 278.441406 C 550.183594 278.964844 549.878906 279.464844 549.53125 279.941406 C 549.1875 280.417969 548.804688 280.867188 548.386719 281.28125 C 547.972656 281.695312 547.523438 282.078125 547.046875 282.421875 C 544.441406 284.355469 541.421875 287.246094 538.734375 294.050781 C 536.148438 300.628906 538.769531 307.605469 541.546875 314.984375 C 544.21875 322.089844 546.984375 329.433594 545.382812 337.039062 C 543.796875 344.542969 539.777344 345.484375 533.125 347.03125 C 526.96875 348.472656 519.296875 350.257812 511.253906 358.324219 C 505.015625 364.574219 495.597656 374.007812 493.511719 373.160156 C 493.34375 373.089844 492.527344 372.515625 492.527344 367.921875 C 492.527344 362.46875 495.019531 357.242188 497.675781 351.703125 C 500.332031 346.167969 503.09375 340.371094 503.09375 334.289062 C 503.09375 331.730469 502.257812 329.796875 500.613281 328.550781 C 498.148438 326.675781 494.019531 326.523438 488.351562 328.113281 C 487.28125 328.410156 486.261719 328.828125 485.292969 329.371094 C 484.324219 329.910156 483.429688 330.558594 482.617188 331.316406 C 481.800781 332.070312 481.085938 332.914062 480.472656 333.839844 C 479.859375 334.769531 479.363281 335.753906 478.988281 336.800781 C 478.234375 338.921875 477.542969 341.058594 476.914062 343.21875 C 476.289062 345.378906 475.726562 347.558594 475.226562 349.75 C 474.730469 351.945312 474.300781 354.152344 473.933594 356.371094 C 473.570312 358.59375 473.269531 360.820312 473.039062 363.058594 C 472.804688 365.296875 472.640625 367.539062 472.542969 369.789062 C 472.445312 372.035156 472.414062 374.285156 472.449219 376.535156 C 472.488281 378.785156 472.589844 381.03125 472.761719 383.273438 C 472.929688 385.515625 473.167969 387.753906 473.472656 389.980469 C 473.777344 392.210938 474.148438 394.429688 474.582031 396.636719 C 475.019531 398.84375 475.523438 401.035156 476.089844 403.210938 C 476.65625 405.386719 477.289062 407.546875 477.984375 409.683594 C 478.683594 411.824219 479.441406 413.941406 480.265625 416.035156 C 481.085938 418.125 481.972656 420.191406 482.917969 422.234375 C 483.863281 424.273438 484.871094 426.285156 485.9375 428.261719 C 487.003906 430.242188 488.128906 432.1875 489.3125 434.101562 C 490.492188 436.011719 491.730469 437.886719 493.027344 439.726562 C 494.320312 441.5625 495.667969 443.359375 497.070312 445.117188 C 498.472656 446.875 499.925781 448.585938 501.433594 450.257812 C 502.9375 451.925781 504.488281 453.550781 506.089844 455.125 C 507.691406 456.703125 509.339844 458.230469 511.03125 459.707031 C 512.722656 461.183594 514.460938 462.609375 516.238281 463.984375 C 518.015625 465.355469 519.832031 466.675781 521.6875 467.941406 C 523.546875 469.203125 525.4375 470.410156 527.367188 471.5625 C 529.296875 472.710938 531.257812 473.804688 533.25 474.835938 C 535.246094 475.871094 537.265625 476.839844 539.320312 477.753906 C 541.371094 478.664062 543.449219 479.511719 545.550781 480.300781 C 547.652344 481.085938 549.777344 481.808594 551.925781 482.46875 C 554.070312 483.128906 556.234375 483.722656 558.414062 484.25 C 560.597656 484.78125 562.792969 485.242188 565 485.640625 C 567.210938 486.039062 569.429688 486.367188 571.65625 486.632812 C 573.886719 486.898438 576.121094 487.09375 578.363281 487.222656 C 580.601562 487.355469 582.84375 487.417969 585.089844 487.410156 L 585.289062 487.410156 C 587.144531 487.410156 589 487.359375 590.851562 487.265625 C 592.703125 487.167969 594.550781 487.027344 596.394531 486.84375 C 598.242188 486.65625 600.082031 486.421875 601.914062 486.144531 C 603.75 485.867188 605.574219 485.542969 607.390625 485.175781 C 609.210938 484.808594 611.015625 484.394531 612.816406 483.9375 C 614.613281 483.480469 616.398438 482.976562 618.167969 482.429688 C 619.941406 481.882812 621.699219 481.292969 623.445312 480.660156 C 625.1875 480.027344 626.914062 479.351562 628.625 478.632812 C 630.335938 477.914062 632.027344 477.152344 633.699219 476.351562 C 635.371094 475.546875 637.023438 474.703125 638.65625 473.820312 C 640.285156 472.933594 641.894531 472.011719 643.480469 471.046875 C 645.066406 470.082031 646.628906 469.078125 648.164062 468.035156 C 649.699219 466.996094 651.207031 465.917969 652.691406 464.800781 C 654.175781 463.683594 655.628906 462.53125 657.054688 461.34375 C 658.480469 460.152344 659.878906 458.929688 661.242188 457.671875 C 662.609375 456.414062 663.941406 455.125 665.246094 453.800781 C 666.546875 452.476562 667.816406 451.121094 669.050781 449.734375 C 670.285156 448.347656 671.488281 446.933594 672.652344 445.488281 C 673.820312 444.039062 674.949219 442.566406 676.039062 441.0625 C 677.132812 439.5625 678.1875 438.035156 679.207031 436.480469 C 680.222656 434.925781 681.203125 433.347656 682.140625 431.746094 C 683.082031 430.140625 683.980469 428.515625 684.839844 426.867188 C 685.699219 425.222656 686.519531 423.554688 687.296875 421.867188 C 688.074219 420.179688 688.808594 418.472656 689.503906 416.746094 C 690.195312 415.023438 690.847656 413.28125 691.453125 411.527344 C 692.0625 409.769531 692.625 408 693.144531 406.214844 C 693.664062 404.429688 694.140625 402.632812 694.570312 400.824219 C 695.003906 399.019531 695.390625 397.199219 695.730469 395.371094 C 696.074219 393.546875 696.371094 391.710938 696.621094 389.867188 C 696.875 388.027344 697.078125 386.179688 697.242188 384.328125 C 697.402344 382.476562 697.515625 380.621094 697.585938 378.761719 C 697.652344 376.90625 697.675781 375.046875 697.652344 373.1875 C 697.226562 337.621094 680.722656 305.097656 652.371094 283.964844 Z M 477.042969 394.367188 C 478.511719 393.820312 480.011719 393.386719 481.546875 393.066406 C 482 392.972656 482.457031 392.886719 482.914062 392.8125 L 483.636719 392.703125 L 483.675781 392.703125 L 484.179688 392.640625 C 485.101562 392.542969 486.027344 392.480469 486.960938 392.457031 C 487.894531 392.433594 488.902344 392.457031 489.875 392.519531 C 490.339844 392.546875 490.796875 392.589844 491.261719 392.640625 L 491.796875 392.703125 L 492.023438 392.738281 L 492.398438 392.796875 C 494.265625 393.085938 496.089844 393.542969 497.871094 394.171875 L 498.445312 394.390625 L 498.726562 394.503906 C 499.101562 394.660156 499.472656 394.839844 499.835938 395.023438 C 500.527344 395.367188 501.195312 395.761719 501.832031 396.203125 C 501.980469 396.3125 502.148438 396.414062 502.289062 396.535156 L 502.53125 396.730469 C 502.847656 396.996094 503.148438 397.269531 503.4375 397.5625 C 503.675781 397.792969 503.894531 398.039062 504.101562 398.304688 C 504.066406 398.257812 504.042969 398.234375 504.101562 398.355469 L 504.269531 398.597656 C 504.378906 398.757812 504.488281 398.921875 504.585938 399.09375 C 504.6875 399.261719 504.78125 399.433594 504.867188 399.613281 C 504.898438 399.667969 504.925781 399.730469 504.953125 399.789062 C 504.953125 399.804688 504.953125 399.820312 504.953125 399.835938 C 505.128906 400.1875 505.242188 400.554688 505.289062 400.941406 C 505.339844 401.089844 505.367188 401.238281 505.382812 401.390625 L 505.382812 401.472656 C 505.386719 401.546875 505.386719 401.621094 505.382812 401.695312 C 505.40625 402.007812 505.40625 402.320312 505.382812 402.628906 C 505.382812 402.757812 505.273438 403.289062 505.382812 402.8125 C 505.351562 402.945312 505.339844 403.078125 505.3125 403.203125 C 505.277344 403.511719 505.222656 403.820312 505.152344 404.121094 C 505.074219 404.375 504.976562 404.617188 504.882812 404.863281 L 504.796875 405.050781 L 504.582031 405.488281 C 504.285156 406.046875 503.960938 406.589844 503.601562 407.113281 C 503.4375 407.359375 503.265625 407.601562 503.085938 407.839844 C 502.996094 407.96875 502.902344 408.09375 502.804688 408.214844 C 502.75 408.277344 502.703125 408.351562 502.644531 408.421875 C 501.839844 409.449219 500.992188 410.445312 500.171875 411.46875 C 498.535156 413.519531 496.875 415.789062 496.414062 418.4375 C 496.121094 419.980469 496.21875 421.492188 496.703125 422.984375 C 497.269531 424.53125 498.085938 425.929688 499.160156 427.179688 C 500.164062 428.355469 501.222656 429.480469 502.34375 430.550781 C 502.914062 431.125 503.453125 431.652344 503.984375 432.222656 C 504.230469 432.484375 504.472656 432.75 504.707031 433.019531 L 505.09375 433.484375 L 505.226562 433.644531 L 505.324219 433.765625 C 505.800781 434.40625 506.234375 435.074219 506.617188 435.773438 C 506.796875 436.09375 506.960938 436.429688 507.121094 436.761719 C 507.203125 436.9375 507.28125 437.109375 507.355469 437.289062 L 507.511719 437.683594 C 507.792969 438.433594 508.027344 439.199219 508.210938 439.980469 C 508.289062 440.339844 508.363281 440.707031 508.433594 441.078125 C 508.433594 441.253906 508.5 441.445312 508.519531 441.648438 C 508.519531 441.792969 508.546875 441.929688 508.566406 442.074219 C 508.640625 442.851562 508.671875 443.628906 508.65625 444.410156 C 508.65625 444.800781 508.628906 445.191406 508.59375 445.558594 C 508.59375 445.769531 508.554688 445.980469 508.53125 446.195312 C 508.53125 446.195312 508.53125 446.34375 508.53125 446.382812 C 508.53125 446.425781 508.53125 446.503906 508.5 446.5625 C 508.378906 447.339844 508.210938 448.101562 507.992188 448.855469 C 507.882812 449.230469 507.761719 449.597656 507.632812 449.964844 L 507.402344 450.539062 L 507.246094 450.886719 C 507.09375 451.214844 506.933594 451.53125 506.761719 451.847656 C 502.914062 447.945312 499.378906 443.773438 496.160156 439.335938 C 492.9375 434.898438 490.066406 430.242188 487.546875 425.367188 C 485.03125 420.496094 482.890625 415.460938 481.128906 410.265625 C 479.367188 405.070312 478.003906 399.769531 477.042969 394.367188 Z M 661.867188 442.230469 Z M 662.652344 448.511719 L 662.691406 448.609375 C 662.671875 448.578125 662.65625 448.539062 662.652344 448.5 Z M 664.09375 451.003906 L 663.910156 450.75 C 663.777344 450.566406 663.652344 450.375 663.53125 450.175781 C 663.289062 449.792969 663.066406 449.394531 662.867188 448.984375 L 662.714844 448.652344 C 662.621094 448.421875 662.535156 448.191406 662.457031 447.960938 C 662.308594 447.53125 662.183594 447.09375 662.078125 446.648438 C 662.03125 446.441406 661.992188 446.234375 661.953125 446.027344 C 661.953125 445.90625 661.914062 445.792969 661.894531 445.671875 C 661.878906 445.550781 661.894531 445.582031 661.894531 445.5625 C 661.84375 445.109375 661.816406 444.652344 661.804688 444.191406 C 661.792969 443.734375 661.804688 443.28125 661.851562 442.828125 C 661.851562 442.707031 661.851562 442.578125 661.890625 442.460938 L 661.890625 442.40625 C 661.957031 442.171875 662 441.929688 662.011719 441.683594 C 662.101562 441.238281 662.214844 440.796875 662.347656 440.359375 C 662.410156 440.164062 662.480469 439.964844 662.554688 439.785156 C 662.628906 439.605469 662.644531 439.554688 662.6875 439.441406 C 662.726562 439.324219 662.644531 439.527344 662.644531 439.527344 C 662.667969 439.460938 662.695312 439.398438 662.730469 439.335938 C 662.917969 438.921875 663.128906 438.519531 663.359375 438.125 C 663.476562 437.933594 663.601562 437.738281 663.726562 437.554688 L 663.921875 437.277344 L 664.058594 437.089844 C 664.671875 436.316406 665.347656 435.605469 666.085938 434.960938 C 666.457031 434.632812 666.839844 434.316406 667.230469 434.007812 L 667.3125 433.945312 L 667.632812 433.703125 L 668.238281 433.261719 C 669.875 432.113281 671.582031 431.039062 673.199219 429.859375 C 674.582031 428.832031 675.894531 427.722656 677.132812 426.53125 C 679.859375 423.867188 682.425781 421.058594 684.832031 418.101562 C 685.671875 417.089844 686.496094 416.0625 687.320312 415.042969 C 684.667969 421.742188 681.382812 428.113281 677.472656 434.164062 C 673.566406 440.214844 669.105469 445.824219 664.09375 450.992188 Z M 664.09375 451.003906 " fill-opacity="1" fill-rule="nonzero"/></g><path fill="#f8f9fa" d="M 581.164062 350.015625 C 581.558594 351.25 582.167969 352.367188 582.984375 353.371094 C 583.800781 354.375 584.773438 355.199219 585.898438 355.835938 C 587.164062 356.507812 588.511719 356.910156 589.941406 357.039062 C 591.367188 357.167969 592.765625 357.015625 594.132812 356.582031 C 596.808594 355.761719 599.191406 354.421875 601.285156 352.566406 C 601.753906 353.0625 602.238281 353.558594 602.742188 354.027344 C 604.859375 356.117188 607.371094 357.492188 610.269531 358.140625 C 613.453125 358.773438 616.679688 358.441406 619.886719 358.21875 C 622.785156 357.964844 625.671875 358.085938 628.542969 358.578125 C 634.082031 359.640625 639.246094 362.246094 642.941406 366.558594 C 643.824219 367.570312 644.597656 368.65625 645.261719 369.820312 C 645.925781 370.984375 646.472656 372.203125 646.898438 373.476562 C 647.324219 374.746094 647.621094 376.046875 647.792969 377.378906 C 647.960938 378.710938 648 380.042969 647.90625 381.382812 C 647.792969 382.617188 647.550781 383.828125 647.179688 385.015625 C 646.835938 386.167969 646.371094 387.273438 645.792969 388.332031 C 644.605469 390.554688 643.09375 392.53125 641.261719 394.257812 C 639.410156 396.050781 637.363281 397.582031 635.117188 398.847656 C 632.726562 400.214844 630.214844 401.292969 627.578125 402.085938 C 621.363281 404.019531 614.867188 404.730469 608.421875 405.488281 C 602.386719 406.195312 596.332031 406.960938 590.503906 408.753906 C 584.945312 410.472656 579.601562 413.101562 575.382812 417.175781 C 570.980469 421.421875 568.117188 427 563.613281 431.148438 C 561.644531 433.058594 559.355469 434.425781 556.742188 435.253906 C 555.472656 435.636719 554.175781 435.765625 552.851562 435.636719 C 552.738281 435.632812 552.621094 435.621094 552.507812 435.601562 L 552.039062 435.511719 C 551.703125 435.433594 551.371094 435.335938 551.046875 435.21875 C 550.542969 435.003906 550.085938 434.710938 549.679688 434.339844 C 549.480469 434.15625 549.308594 433.949219 549.171875 433.714844 C 549.03125 433.488281 548.90625 433.253906 548.800781 433.007812 C 548.679688 432.691406 548.582031 432.371094 548.511719 432.039062 C 548.449219 431.773438 548.40625 431.507812 548.386719 431.234375 C 548.328125 430.5625 548.328125 429.890625 548.386719 429.222656 C 548.386719 429.078125 548.414062 428.933594 548.433594 428.789062 C 548.433594 428.75 548.433594 428.59375 548.472656 428.550781 C 548.519531 428.257812 548.574219 427.976562 548.644531 427.675781 C 548.773438 427.09375 548.933594 426.519531 549.125 425.957031 C 549.222656 425.679688 549.324219 425.382812 549.433594 425.136719 C 549.4375 425.105469 549.4375 425.078125 549.433594 425.050781 L 549.472656 424.96875 C 549.539062 424.824219 549.601562 424.675781 549.667969 424.53125 C 550.175781 423.457031 550.757812 422.429688 551.421875 421.445312 C 551.753906 420.941406 552.101562 420.449219 552.46875 419.964844 C 552.773438 419.550781 553.039062 419.191406 553.46875 418.679688 C 554.253906 417.710938 555.074219 416.769531 555.902344 415.8125 C 557.570312 413.917969 559.273438 412.050781 560.832031 410.074219 C 562.554688 408.007812 563.964844 405.746094 565.054688 403.285156 C 566.144531 400.820312 566.875 398.257812 567.246094 395.589844 C 568.113281 390.039062 567.855469 384.417969 567.636719 378.828125 C 567.527344 376.039062 567.429688 373.25 567.488281 370.460938 C 567.523438 369.089844 567.585938 367.726562 567.71875 366.359375 C 567.832031 365.085938 568.023438 363.824219 568.289062 362.570312 C 568.769531 360.0625 569.589844 357.667969 570.757812 355.394531 C 570.84375 355.234375 570.898438 355.0625 570.921875 354.878906 C 570.945312 354.699219 570.929688 354.519531 570.886719 354.34375 C 570.839844 354.164062 570.761719 354.003906 570.652344 353.855469 C 570.546875 353.707031 570.414062 353.585938 570.257812 353.488281 C 570.097656 353.398438 569.929688 353.339844 569.746094 353.316406 C 569.566406 353.292969 569.386719 353.304688 569.210938 353.351562 C 569.03125 353.398438 568.871094 353.476562 568.726562 353.585938 C 568.578125 353.695312 568.457031 353.832031 568.363281 353.988281 C 565.679688 359.117188 564.847656 364.890625 564.734375 370.628906 C 564.621094 376.367188 565.171875 382.105469 565.101562 387.84375 C 565.113281 390.613281 564.886719 393.359375 564.421875 396.089844 C 563.9375 398.757812 563.074219 401.292969 561.820312 403.699219 C 559.40625 408.230469 555.769531 411.703125 552.410156 415.667969 C 549.050781 419.632812 546.0625 424.015625 545.605469 429.332031 C 545.347656 432.378906 546.246094 435.683594 549.039062 437.292969 C 551.695312 438.828125 555.164062 438.671875 557.996094 437.742188 C 564.078125 435.75 568.105469 430.628906 571.804688 425.691406 C 573.621094 423.109375 575.664062 420.722656 577.933594 418.53125 C 580.078125 416.621094 582.445312 415.046875 585.03125 413.808594 C 590.183594 411.265625 596.113281 409.933594 601.878906 409.070312 C 608.542969 408.070312 615.285156 407.628906 621.914062 406.324219 C 627.90625 405.144531 633.8125 403.203125 638.886719 399.714844 C 643.464844 396.589844 647.289062 392.394531 649.332031 387.195312 C 651.496094 381.691406 651.007812 375.582031 648.570312 370.261719 C 647.285156 367.546875 645.566406 365.140625 643.421875 363.046875 C 641.273438 360.949219 638.832031 359.292969 636.089844 358.074219 C 633.214844 356.78125 630.214844 355.9375 627.085938 355.546875 C 623.96875 355.148438 620.882812 355.359375 617.757812 355.582031 C 616.121094 355.726562 614.480469 355.757812 612.839844 355.679688 C 612.101562 355.640625 611.371094 355.539062 610.648438 355.375 C 610.296875 355.300781 609.957031 355.210938 609.613281 355.101562 L 609.039062 354.898438 L 608.65625 354.746094 C 606.601562 353.757812 604.828125 352.402344 603.339844 350.675781 C 605.089844 348.957031 606.734375 347.121094 608.410156 345.390625 C 610.324219 343.285156 612.539062 341.5625 615.050781 340.226562 C 615.207031 340.132812 615.339844 340.011719 615.449219 339.867188 C 615.558594 339.71875 615.636719 339.558594 615.683594 339.378906 C 615.730469 339.203125 615.742188 339.023438 615.71875 338.839844 C 615.695312 338.660156 615.636719 338.488281 615.546875 338.328125 C 615.453125 338.171875 615.332031 338.039062 615.183594 337.929688 C 615.035156 337.820312 614.875 337.742188 614.699219 337.695312 C 614.519531 337.648438 614.339844 337.636719 614.160156 337.660156 C 613.976562 337.683594 613.808594 337.738281 613.648438 337.828125 C 608.667969 340.308594 605.398438 344.875 601.5 348.675781 C 600.039062 346.890625 598.410156 345.277344 596.617188 343.832031 C 594.53125 342.285156 592.203125 341.359375 589.628906 341.054688 C 588.417969 340.871094 587.222656 340.953125 586.046875 341.304688 C 584.871094 341.65625 583.828125 342.242188 582.914062 343.0625 C 582.464844 343.503906 582.082031 344 581.765625 344.550781 C 581.453125 345.097656 581.21875 345.679688 581.0625 346.292969 C 580.910156 346.90625 580.839844 347.527344 580.859375 348.160156 C 580.875 348.792969 580.976562 349.414062 581.164062 350.015625 Z M 584.941406 351.382812 C 584.828125 351.246094 584.917969 351.359375 584.941406 351.382812 Z M 583.886719 346.40625 Z M 583.640625 347.335938 C 583.640625 347.417969 583.640625 347.421875 583.640625 347.335938 Z M 583.640625 347.480469 C 583.644531 347.429688 583.644531 347.378906 583.640625 347.324219 C 583.691406 347.085938 583.746094 346.847656 583.820312 346.613281 C 583.820312 346.546875 583.871094 346.476562 583.894531 346.402344 C 583.917969 346.328125 584.015625 346.15625 584.082031 346.027344 L 584.28125 345.695312 L 584.414062 345.511719 C 584.578125 345.308594 584.753906 345.117188 584.945312 344.9375 C 585.007812 344.882812 585.078125 344.816406 585.152344 344.761719 L 585.3125 344.640625 C 585.539062 344.488281 585.777344 344.351562 586.023438 344.234375 C 586.074219 344.234375 586.175781 344.164062 586.207031 344.152344 L 586.453125 344.066406 C 586.71875 343.980469 586.988281 343.910156 587.257812 343.855469 L 587.523438 343.808594 L 587.730469 343.808594 C 588.019531 343.78125 588.308594 343.773438 588.597656 343.78125 C 588.851562 343.78125 589.101562 343.78125 589.355469 343.820312 L 589.582031 343.820312 L 590.011719 343.894531 C 590.578125 344.003906 591.132812 344.152344 591.679688 344.335938 C 591.917969 344.417969 592.148438 344.503906 592.382812 344.601562 L 592.664062 344.71875 L 593.09375 344.921875 C 593.613281 345.183594 594.117188 345.476562 594.601562 345.800781 C 594.808594 345.9375 595.007812 346.082031 595.210938 346.230469 L 595.433594 346.40625 L 595.777344 346.707031 C 596.273438 347.152344 596.753906 347.625 597.21875 348.113281 C 597.976562 348.890625 598.703125 349.707031 599.421875 350.523438 C 597.707031 352.011719 595.773438 353.117188 593.625 353.84375 C 592.347656 354.246094 591.039062 354.390625 589.703125 354.273438 L 589.550781 354.273438 L 589.164062 354.199219 C 588.863281 354.132812 588.566406 354.042969 588.277344 353.9375 L 588.0625 353.855469 L 587.761719 353.71875 C 587.484375 353.578125 587.214844 353.425781 586.949219 353.257812 C 586.738281 353.128906 586.53125 352.984375 586.332031 352.835938 C 586.292969 352.792969 586.136719 352.667969 586.109375 352.644531 C 585.988281 352.542969 585.875 352.4375 585.765625 352.328125 C 585.5625 352.148438 585.375 351.957031 585.191406 351.753906 C 585.09375 351.648438 585.003906 351.53125 584.914062 351.417969 L 584.757812 351.210938 C 584.613281 350.992188 584.472656 350.773438 584.347656 350.550781 C 584.269531 350.417969 584.203125 350.285156 584.132812 350.15625 C 584.132812 350.109375 584.046875 349.960938 584.019531 349.90625 C 583.832031 349.445312 583.699219 348.964844 583.617188 348.472656 C 583.617188 348.425781 583.617188 348.347656 583.617188 348.296875 C 583.617188 348.242188 583.617188 348.054688 583.617188 347.933594 C 583.617188 347.8125 583.625 347.617188 583.628906 347.480469 Z M 583.640625 347.480469 " fill-opacity="1" fill-rule="nonzero"/><path fill="#f8f9fa" d="M 633.308594 461.808594 C 633.671875 461.808594 634.03125 461.808594 634.386719 461.808594 C 634.679688 461.800781 634.976562 461.816406 635.265625 461.867188 L 635.351562 461.867188 L 635.542969 461.898438 C 635.730469 461.941406 635.914062 461.984375 636.113281 462.039062 C 636.265625 462.078125 636.410156 462.125 636.554688 462.179688 L 636.613281 462.179688 L 636.726562 462.234375 C 636.859375 462.296875 636.992188 462.367188 637.117188 462.445312 L 637.300781 462.566406 C 637.410156 462.660156 637.515625 462.757812 637.613281 462.863281 L 637.730469 462.992188 C 637.804688 463.105469 637.878906 463.214844 637.941406 463.335938 C 638.003906 463.457031 638.007812 463.460938 638.039062 463.523438 C 638.039062 463.539062 638.039062 463.550781 638.039062 463.5625 C 638.089844 463.742188 638.175781 463.898438 638.289062 464.042969 C 638.40625 464.1875 638.542969 464.304688 638.703125 464.394531 C 638.863281 464.484375 639.03125 464.542969 639.214844 464.566406 C 639.398438 464.589844 639.578125 464.578125 639.753906 464.535156 C 639.933594 464.484375 640.09375 464.398438 640.238281 464.285156 C 640.382812 464.171875 640.5 464.035156 640.589844 463.871094 C 640.683594 463.710938 640.738281 463.539062 640.761719 463.355469 C 640.785156 463.171875 640.769531 462.992188 640.722656 462.8125 C 640.441406 462.035156 640.011719 461.355469 639.429688 460.773438 C 638.84375 460.191406 638.167969 459.761719 637.390625 459.484375 C 635.960938 458.984375 634.492188 458.820312 632.988281 458.984375 C 631.460938 459.175781 629.953125 459.472656 628.46875 459.878906 C 628.105469 459.960938 627.746094 460.039062 627.378906 460.105469 C 627.203125 460.136719 627.019531 460.171875 626.835938 460.195312 L 626.617188 460.230469 L 626.433594 460.230469 C 625.699219 460.347656 624.957031 460.386719 624.214844 460.355469 L 623.980469 460.355469 C 623.8125 460.328125 623.652344 460.289062 623.492188 460.246094 C 623.332031 460.207031 623.175781 460.15625 623.023438 460.097656 L 622.9375 460.0625 L 622.867188 460.0625 L 622.742188 459.988281 C 622.601562 459.914062 622.46875 459.824219 622.332031 459.742188 L 622.183594 459.617188 C 622.0625 459.5 621.953125 459.375 621.839844 459.261719 L 621.644531 458.957031 C 621.582031 458.847656 621.523438 458.734375 621.464844 458.617188 L 621.464844 458.582031 C 621.382812 458.375 621.3125 458.160156 621.253906 457.941406 C 621.132812 457.511719 621.046875 457.0625 620.96875 456.621094 C 620.851562 455.753906 620.660156 454.90625 620.394531 454.074219 C 619.84375 452.601562 619.019531 451.304688 617.921875 450.179688 C 616.828125 449.058594 615.554688 448.199219 614.097656 447.613281 C 612.613281 446.96875 611.066406 446.574219 609.453125 446.4375 C 607.84375 446.296875 606.25 446.417969 604.675781 446.796875 C 601.007812 447.699219 597.773438 449.808594 594.945312 452.292969 C 592.234375 454.691406 589.976562 457.503906 587.585938 460.207031 C 586.410156 461.558594 585.148438 462.824219 583.808594 464.007812 L 583.328125 464.40625 L 583.070312 464.613281 L 583.011719 464.65625 C 582.644531 464.929688 582.269531 465.226562 581.867188 465.453125 C 581.113281 465.949219 580.320312 466.375 579.492188 466.738281 L 579.453125 466.738281 L 579.371094 466.765625 L 579.039062 466.890625 L 578.300781 467.152344 C 577.824219 467.304688 577.34375 467.4375 576.863281 467.558594 C 575.867188 467.804688 574.859375 467.988281 573.851562 468.132812 C 571.894531 468.402344 569.949219 468.769531 568.027344 469.234375 C 564.804688 470.113281 561.507812 471.890625 559.765625 474.855469 C 559.332031 475.597656 559.015625 476.386719 558.820312 477.226562 C 558.773438 477.40625 558.761719 477.585938 558.785156 477.765625 C 558.804688 477.949219 558.863281 478.121094 558.953125 478.28125 C 559.042969 478.441406 559.164062 478.578125 559.308594 478.691406 C 559.453125 478.804688 559.613281 478.886719 559.789062 478.933594 C 559.96875 478.984375 560.148438 478.996094 560.328125 478.972656 C 560.511719 478.953125 560.683594 478.894531 560.84375 478.804688 C 561.003906 478.714844 561.136719 478.59375 561.25 478.449219 C 561.363281 478.304688 561.445312 478.144531 561.496094 477.96875 C 561.574219 477.640625 561.671875 477.320312 561.785156 477.003906 C 561.785156 477.039062 561.914062 476.710938 561.949219 476.640625 C 562.050781 476.445312 562.160156 476.253906 562.273438 476.066406 C 562.371094 475.914062 562.472656 475.761719 562.578125 475.613281 L 562.761719 475.390625 C 563.011719 475.097656 563.28125 474.824219 563.566406 474.5625 C 563.703125 474.4375 563.847656 474.316406 563.992188 474.195312 L 564.105469 474.109375 L 564.25 474 C 564.574219 473.773438 564.914062 473.554688 565.257812 473.351562 C 565.597656 473.152344 565.929688 472.980469 566.273438 472.8125 L 566.75 472.601562 L 566.847656 472.554688 L 567.226562 472.414062 C 570.75 471.085938 574.597656 471.058594 578.210938 470.058594 C 580.070312 469.554688 581.804688 468.769531 583.414062 467.707031 C 584.925781 466.679688 586.316406 465.507812 587.589844 464.195312 C 590.0625 461.699219 592.171875 458.886719 594.636719 456.367188 C 595.265625 455.714844 595.914062 455.082031 596.589844 454.476562 C 596.894531 454.199219 597.203125 453.933594 597.511719 453.671875 L 598.007812 453.257812 L 598.261719 453.058594 L 598.324219 453.007812 L 598.386719 452.964844 C 599.785156 451.890625 601.28125 450.988281 602.886719 450.257812 L 603.039062 450.195312 L 603.253906 450.109375 L 603.824219 449.890625 C 604.242188 449.742188 604.667969 449.613281 605.09375 449.5 C 605.523438 449.386719 605.839844 449.316406 606.242188 449.246094 C 606.320312 449.246094 606.871094 449.109375 606.488281 449.207031 C 606.691406 449.164062 606.898438 449.144531 607.105469 449.144531 C 607.804688 449.089844 608.5 449.089844 609.199219 449.144531 L 609.71875 449.195312 L 609.765625 449.195312 L 609.972656 449.222656 C 610.355469 449.292969 610.726562 449.367188 611.117188 449.464844 C 611.507812 449.5625 611.785156 449.648438 612.113281 449.765625 L 612.605469 449.941406 L 612.792969 450.015625 L 612.828125 450.015625 L 612.890625 450.046875 C 613.527344 450.335938 614.140625 450.671875 614.722656 451.0625 L 615.042969 451.296875 L 615.324219 451.515625 C 615.597656 451.753906 615.867188 452.007812 616.121094 452.269531 C 616.234375 452.390625 616.34375 452.519531 616.453125 452.644531 L 616.578125 452.792969 C 616.765625 453.0625 616.957031 453.332031 617.121094 453.621094 C 617.269531 453.882812 617.402344 454.152344 617.523438 454.429688 C 617.523438 454.507812 617.625 454.691406 617.648438 454.75 C 617.710938 454.945312 617.773438 455.140625 617.824219 455.324219 C 618.0625 456.203125 618.152344 457.109375 618.347656 457.992188 C 618.492188 458.878906 618.816406 459.695312 619.316406 460.445312 C 619.8125 461.191406 620.445312 461.800781 621.207031 462.273438 C 623.992188 463.839844 627.503906 463.085938 630.429688 462.308594 C 631.109375 462.09375 631.800781 461.949219 632.507812 461.871094 C 632.113281 461.898438 632.664062 461.871094 632.753906 461.871094 Z M 583.070312 464.453125 Z M 621.351562 458.40625 C 621.324219 458.355469 621.351562 458.371094 621.351562 458.40625 Z M 622.863281 459.996094 L 622.988281 460.046875 C 622.988281 460.046875 622.914062 460.023438 622.863281 459.996094 Z M 624.046875 460.328125 L 624.164062 460.328125 C 624.125 460.34375 624.089844 460.355469 624.046875 460.355469 Z M 624.046875 460.328125 " fill-opacity="1" fill-rule="nonzero"/><path fill="#f8f9fa" d="M 501.882812 413.78125 L 501.839844 413.835938 C 501.789062 413.878906 501.71875 414.039062 501.882812 413.78125 Z M 501.882812 413.78125 " fill-opacity="1" fill-rule="nonzero"/><path fill="#f8f9fa" d="M 502.824219 408.21875 C 502.589844 408.484375 502.765625 408.292969 502.824219 408.21875 Z M 502.824219 408.21875 " fill-opacity="1" fill-rule="nonzero"/><path fill="#f8f9fa" d="M 499.085938 419.355469 C 499.164062 419.042969 499.097656 419.25 499.085938 419.355469 Z M 499.085938 419.355469 " fill-opacity="1" fill-rule="nonzero"/><path fill="#f8f9fa" d="M 597.492188 261.964844 L 597.535156 261.871094 Z M 597.492188 261.964844 " fill-opacity="1" fill-rule="nonzero"/><g clip-path="url(#7d14482f2c)"><path fill="#f8f9fa" d="M 604.785156 308.292969 C 608.9375 315.066406 613.339844 321.675781 617.472656 328.457031 C 618.058594 329.425781 618.644531 330.398438 619.234375 331.378906 C 619.296875 331.480469 619.371094 331.574219 619.457031 331.660156 C 619.542969 331.742188 619.640625 331.8125 619.746094 331.871094 C 619.847656 331.929688 619.960938 331.976562 620.074219 332.007812 C 620.191406 332.035156 620.308594 332.050781 620.429688 332.050781 C 620.550781 332.050781 620.667969 332.035156 620.785156 332.007812 C 620.902344 331.976562 621.011719 331.929688 621.117188 331.871094 C 621.222656 331.8125 621.316406 331.742188 621.402344 331.660156 C 621.488281 331.574219 621.5625 331.480469 621.625 331.378906 C 625.71875 325.378906 629.425781 319.152344 632.753906 312.695312 C 634.351562 309.695312 635.910156 306.671875 637.5 303.667969 C 639.148438 300.558594 640.761719 297.464844 642.078125 294.207031 C 644.777344 287.644531 646.425781 280.828125 647.023438 273.757812 C 647.335938 270.390625 647.335938 267.027344 647.023438 263.664062 C 646.785156 260.816406 646.0625 258.09375 644.859375 255.503906 C 643.632812 253.007812 641.875 250.96875 639.589844 249.390625 C 636.898438 247.597656 633.941406 246.542969 630.722656 246.234375 C 629.117188 246.058594 627.519531 246.117188 625.929688 246.417969 C 624.34375 246.71875 622.835938 247.246094 621.402344 247.996094 C 619.984375 248.800781 618.675781 249.757812 617.476562 250.867188 C 616.359375 251.867188 615.332031 252.957031 614.402344 254.136719 C 610.515625 259.074219 608.308594 265.328125 609.074219 271.644531 C 609.816406 277.691406 613.019531 284 618.640625 286.832031 C 621.277344 288.164062 624.535156 288.84375 627.367188 287.707031 C 630.621094 286.402344 632.34375 283.355469 633.308594 280.136719 C 634.277344 276.917969 634.625 273.125 633.476562 269.808594 C 632.953125 268.253906 632.125 266.886719 630.984375 265.707031 C 629.84375 264.53125 628.503906 263.65625 626.96875 263.089844 C 625.5 262.574219 624.007812 262.476562 622.484375 262.789062 C 622.308594 262.839844 622.144531 262.921875 622 263.035156 C 621.855469 263.152344 621.734375 263.289062 621.644531 263.449219 C 621.554688 263.613281 621.496094 263.785156 621.476562 263.96875 C 621.453125 264.152344 621.46875 264.332031 621.519531 264.511719 C 621.570312 264.6875 621.65625 264.847656 621.769531 264.992188 C 621.882812 265.136719 622.019531 265.253906 622.179688 265.347656 C 622.339844 265.4375 622.511719 265.496094 622.695312 265.519531 C 622.875 265.542969 623.058594 265.535156 623.234375 265.488281 C 623.292969 265.488281 623.597656 265.4375 623.578125 265.429688 L 623.984375 265.429688 C 624.285156 265.425781 624.585938 265.441406 624.882812 265.46875 L 625.222656 265.527344 C 625.386719 265.5625 625.546875 265.597656 625.707031 265.644531 L 626.121094 265.773438 L 626.488281 265.914062 C 627.070312 266.171875 627.617188 266.492188 628.128906 266.875 L 628.398438 267.09375 L 628.730469 267.394531 C 628.996094 267.644531 629.246094 267.910156 629.480469 268.191406 L 629.625 268.375 L 629.65625 268.414062 C 629.742188 268.539062 629.828125 268.660156 629.910156 268.789062 C 630.113281 269.089844 630.292969 269.402344 630.453125 269.726562 C 630.589844 269.984375 630.699219 270.246094 630.792969 270.519531 C 630.929688 270.917969 631.046875 271.316406 631.144531 271.726562 C 631.324219 272.421875 631.417969 273.132812 631.433594 273.855469 C 631.460938 274.65625 631.425781 275.457031 631.335938 276.253906 C 631.335938 276.328125 631.335938 276.402344 631.335938 276.476562 C 631.332031 276.496094 631.332031 276.519531 631.335938 276.539062 C 631.300781 276.742188 631.273438 276.933594 631.230469 277.113281 C 631.164062 277.507812 631.078125 277.898438 630.980469 278.296875 C 630.796875 279.050781 630.570312 279.796875 630.296875 280.527344 C 630.234375 280.707031 630.167969 280.882812 630.097656 281.054688 L 630.097656 281.089844 L 629.9375 281.324219 C 629.765625 281.6875 629.574219 282.039062 629.367188 282.382812 C 629.054688 282.976562 628.648438 283.503906 628.15625 283.964844 C 628.027344 284.089844 627.894531 284.210938 627.75 284.332031 L 627.71875 284.332031 L 627.558594 284.445312 C 627.273438 284.644531 626.972656 284.820312 626.660156 284.96875 L 626.53125 285.03125 L 626.492188 285.03125 L 626.039062 285.1875 C 625.71875 285.28125 625.394531 285.351562 625.066406 285.40625 L 624.878906 285.40625 C 624.71875 285.40625 624.558594 285.40625 624.390625 285.40625 C 624.046875 285.414062 623.699219 285.402344 623.355469 285.371094 L 623.074219 285.335938 L 622.679688 285.261719 C 622.347656 285.199219 622.023438 285.113281 621.703125 285.019531 C 621.378906 284.929688 621.054688 284.800781 620.734375 284.683594 L 620.664062 284.769531 L 620.503906 284.695312 C 620.34375 284.625 620.191406 284.550781 620.035156 284.46875 C 619.417969 284.160156 618.828125 283.804688 618.265625 283.402344 L 617.980469 283.183594 L 617.644531 282.910156 C 617.378906 282.683594 617.128906 282.449219 616.886719 282.207031 C 616.386719 281.707031 615.917969 281.179688 615.480469 280.625 L 615.445312 280.578125 L 615.285156 280.359375 L 614.976562 279.929688 C 614.773438 279.636719 614.585938 279.355469 614.402344 279.03125 C 614.03125 278.421875 613.699219 277.796875 613.402344 277.148438 L 613.210938 276.722656 L 613.09375 276.4375 C 612.953125 276.085938 612.828125 275.730469 612.707031 275.367188 C 612.480469 274.691406 612.289062 274.003906 612.136719 273.304688 C 612.066406 272.976562 612.003906 272.644531 611.949219 272.316406 C 611.914062 272.136719 611.890625 271.960938 611.863281 271.78125 C 611.863281 271.667969 611.863281 271.546875 611.816406 271.433594 C 611.742188 270.722656 611.699219 270.003906 611.695312 269.285156 C 611.691406 268.570312 611.722656 267.855469 611.792969 267.140625 L 611.84375 266.675781 L 611.84375 266.636719 L 611.878906 266.382812 C 611.9375 266.019531 612 265.664062 612.074219 265.316406 C 612.222656 264.605469 612.40625 263.902344 612.617188 263.214844 C 612.71875 262.894531 612.828125 262.574219 612.941406 262.257812 C 613.007812 262.085938 613.070312 261.917969 613.136719 261.746094 C 613.167969 261.667969 613.199219 261.578125 613.234375 261.5 L 613.234375 261.390625 C 613.804688 260.058594 614.492188 258.785156 615.296875 257.582031 C 615.480469 257.300781 615.671875 257.007812 615.867188 256.742188 C 615.972656 256.59375 616.082031 256.449219 616.1875 256.308594 L 616.25 256.21875 L 616.433594 255.996094 C 616.886719 255.421875 617.363281 254.882812 617.867188 254.355469 C 618.371094 253.828125 618.855469 253.355469 619.378906 252.886719 C 619.644531 252.644531 619.949219 252.410156 620.203125 252.175781 L 620.625 251.835938 L 620.699219 251.777344 L 620.882812 251.640625 C 621.472656 251.191406 622.097656 250.792969 622.75 250.4375 C 623.058594 250.269531 623.371094 250.113281 623.691406 249.972656 C 623.75 249.972656 623.9375 249.875 623.972656 249.855469 L 624.546875 249.648438 C 625.238281 249.421875 625.941406 249.246094 626.660156 249.121094 L 627.023438 249.070312 C 627.183594 249.046875 627.34375 249.03125 627.503906 249.019531 C 627.867188 248.984375 628.230469 248.96875 628.597656 248.960938 C 631.476562 248.90625 634.1875 249.558594 636.726562 250.914062 C 637.300781 251.222656 637.855469 251.566406 638.386719 251.945312 L 638.707031 252.1875 L 638.886719 252.335938 C 639.144531 252.550781 639.390625 252.769531 639.625 252.988281 C 640.046875 253.394531 640.445312 253.828125 640.8125 254.285156 C 640.859375 254.34375 640.90625 254.394531 640.945312 254.453125 C 641.019531 254.5625 641.105469 254.664062 641.179688 254.769531 C 641.363281 255.03125 641.539062 255.300781 641.707031 255.570312 C 642.027344 256.089844 642.316406 256.621094 642.570312 257.171875 C 642.632812 257.3125 642.691406 257.453125 642.761719 257.59375 C 642.78125 257.636719 642.800781 257.683594 642.816406 257.730469 C 642.941406 258.035156 643.058594 258.34375 643.160156 258.652344 C 643.570312 259.871094 643.875 261.109375 644.078125 262.378906 C 644.078125 262.519531 644.117188 262.664062 644.140625 262.808594 C 644.140625 262.859375 644.140625 262.910156 644.140625 262.964844 C 644.140625 262.992188 644.140625 263.023438 644.140625 263.054688 C 644.179688 263.386719 644.21875 263.71875 644.25 264.058594 C 644.316406 264.800781 644.355469 265.550781 644.386719 266.296875 C 644.449219 267.960938 644.449219 269.625 644.386719 271.285156 C 644.257812 274.539062 643.863281 277.765625 643.207031 280.957031 C 642.539062 284.226562 641.640625 287.429688 640.511719 290.570312 C 639.414062 293.625 638.101562 296.585938 636.578125 299.453125 C 635.09375 302.265625 633.597656 305.074219 632.117188 307.894531 C 628.964844 313.929688 625.75 319.941406 622.078125 325.679688 C 621.550781 326.507812 621.007812 327.332031 620.460938 328.148438 C 616.628906 321.835938 612.605469 315.65625 608.683594 309.40625 C 606.910156 306.574219 605.171875 303.714844 603.53125 300.800781 C 602.773438 299.421875 602.03125 298.023438 601.335938 296.605469 C 601 295.925781 600.671875 295.238281 600.355469 294.539062 L 599.945312 293.609375 L 599.71875 293.09375 L 599.675781 292.992188 C 599.675781 292.957031 599.566406 292.726562 599.554688 292.699219 C 598.417969 289.9375 597.507812 287.101562 596.824219 284.195312 C 596.46875 282.703125 596.175781 281.1875 595.953125 279.667969 L 595.886719 279.183594 C 595.886719 279.183594 595.84375 278.875 595.835938 278.804688 C 595.78125 278.386719 595.738281 277.96875 595.691406 277.550781 C 595.609375 276.742188 595.542969 275.925781 595.496094 275.105469 C 595.378906 273.4375 595.378906 271.773438 595.496094 270.105469 C 595.496094 269.714844 595.566406 269.332031 595.609375 268.960938 C 595.609375 268.882812 595.664062 268.609375 595.609375 268.902344 L 595.644531 268.65625 C 595.679688 268.414062 595.71875 268.171875 595.765625 267.925781 C 595.910156 267.117188 596.085938 266.320312 596.304688 265.527344 C 596.519531 264.734375 596.765625 263.949219 597.046875 263.179688 C 597.183594 262.789062 597.339844 262.410156 597.492188 262.035156 C 597.511719 262.003906 597.523438 261.972656 597.535156 261.941406 C 597.5625 261.882812 597.585938 261.820312 597.613281 261.761719 C 597.707031 261.550781 597.796875 261.351562 597.894531 261.144531 C 598.59375 259.648438 599.410156 258.214844 600.339844 256.851562 C 600.574219 256.511719 600.808594 256.175781 601.054688 255.84375 L 601.203125 255.648438 L 601.328125 255.480469 C 601.375 255.421875 601.445312 255.332031 601.445312 255.335938 L 601.671875 255.050781 C 602.195312 254.40625 602.738281 253.789062 603.304688 253.191406 C 603.875 252.617188 604.449219 252.042969 605.078125 251.46875 C 605.382812 251.195312 605.695312 250.929688 606.011719 250.667969 L 606.445312 250.316406 L 606.613281 250.183594 L 606.796875 250.039062 C 608.109375 249.050781 609.5 248.179688 610.960938 247.425781 C 611.324219 247.242188 611.695312 247.058594 612.066406 246.882812 L 612.640625 246.636719 L 612.707031 246.636719 L 612.988281 246.523438 C 613.75 246.214844 614.527344 245.949219 615.3125 245.707031 C 616.097656 245.46875 616.90625 245.277344 617.710938 245.132812 C 617.890625 245.085938 618.050781 245 618.195312 244.886719 C 618.339844 244.773438 618.460938 244.636719 618.550781 244.472656 C 618.640625 244.3125 618.695312 244.140625 618.71875 243.957031 C 618.742188 243.773438 618.726562 243.589844 618.679688 243.414062 C 618.625 243.238281 618.542969 243.074219 618.429688 242.933594 C 618.3125 242.789062 618.175781 242.671875 618.015625 242.582031 C 617.855469 242.488281 617.683594 242.433594 617.5 242.410156 C 617.320312 242.386719 617.140625 242.398438 616.960938 242.441406 C 613.578125 243.167969 610.414062 244.4375 607.46875 246.253906 C 604.519531 248.070312 601.960938 250.324219 599.789062 253.023438 C 595.394531 258.402344 592.652344 265.15625 592.621094 272.15625 C 592.625 278.683594 593.75 285.007812 596 291.132812 C 598.230469 297.121094 601.410156 302.804688 604.785156 308.292969 Z M 629.589844 268.324219 Z M 629.589844 268.324219 " fill-opacity="1" fill-rule="nonzero"/></g><g fill="#f8f9fa" fill-opacity="1"><g transform="translate(314.414532, 539.81819)"><g><path d="M 39.257812 0 L 39.257812 -11.285156 L 18.414062 -11.285156 L 38.632812 -56.027344 L 4.703125 -56.027344 L 4.703125 -45.136719 L 21.941406 -45.136719 C 15.203125 -30.167969 8.464844 -15.046875 1.722656 0 Z M 39.257812 0 "/></g></g></g><g fill="#f8f9fa" fill-opacity="1"><g transform="translate(356.334586, 539.81819)"><g><path d="M 33.226562 0.785156 C 71.78125 0.785156 71.78125 -56.96875 33.226562 -56.96875 C -5.328125 -56.96875 -5.328125 0.785156 33.226562 0.785156 Z M 33.226562 -10.8125 C 10.8125 -10.8125 10.8125 -45.449219 33.226562 -45.449219 C 55.636719 -45.449219 55.636719 -10.8125 33.226562 -10.8125 Z M 33.226562 -10.8125 "/></g></g></g><g fill="#f8f9fa" fill-opacity="1"><g transform="translate(422.701463, 539.81819)"><g><path d="M 33.226562 0.785156 C 71.78125 0.785156 71.78125 -56.96875 33.226562 -56.96875 C -5.328125 -56.96875 -5.328125 0.785156 33.226562 0.785156 Z M 33.226562 -10.8125 C 10.8125 -10.8125 10.8125 -45.449219 33.226562 -45.449219 C 55.636719 -45.449219 55.636719 -10.8125 33.226562 -10.8125 Z M 33.226562 -10.8125 "/></g></g></g><g fill="#f8f9fa" fill-opacity="1"><g transform="translate(176.798457, 459.688066)"><g><path d="M 12.6875 0.734375 C 11.21875 0.734375 9.863281 0.484375 8.625 -0.015625 C 7.382812 -0.515625 6.316406 -1.203125 5.421875 -2.078125 C 4.523438 -2.953125 3.828125 -3.984375 3.328125 -5.171875 C 2.828125 -6.359375 2.578125 -7.640625 2.578125 -9.015625 L 2.578125 -16.75 C 2.578125 -18.113281 2.828125 -19.390625 3.328125 -20.578125 C 3.828125 -21.773438 4.523438 -22.804688 5.421875 -23.671875 C 6.316406 -24.546875 7.382812 -25.234375 8.625 -25.734375 C 9.863281 -26.242188 11.21875 -26.5 12.6875 -26.5 C 13.894531 -26.5 14.957031 -26.351562 15.875 -26.0625 C 16.789062 -25.78125 17.597656 -25.421875 18.296875 -24.984375 C 19.003906 -24.546875 19.585938 -24.066406 20.046875 -23.546875 C 20.515625 -23.035156 20.882812 -22.546875 21.15625 -22.078125 L 21.421875 -21.5625 C 21.492188 -21.414062 21.554688 -21.25 21.609375 -21.0625 C 21.671875 -20.882812 21.703125 -20.734375 21.703125 -20.609375 C 21.703125 -19.628906 21.210938 -19.140625 20.234375 -19.140625 C 19.867188 -19.140625 19.585938 -19.257812 19.390625 -19.5 C 19.191406 -19.75 18.984375 -20.054688 18.765625 -20.421875 C 18.492188 -20.890625 18.179688 -21.332031 17.828125 -21.75 C 17.472656 -22.164062 17.050781 -22.53125 16.5625 -22.84375 C 16.070312 -23.164062 15.515625 -23.425781 14.890625 -23.625 C 14.265625 -23.820312 13.53125 -23.921875 12.6875 -23.921875 C 11.6875 -23.921875 10.742188 -23.734375 9.859375 -23.359375 C 8.972656 -22.992188 8.210938 -22.484375 7.578125 -21.828125 C 6.941406 -21.179688 6.4375 -20.421875 6.0625 -19.546875 C 5.695312 -18.679688 5.515625 -17.75 5.515625 -16.75 L 5.515625 -9.015625 C 5.515625 -8.003906 5.695312 -7.054688 6.0625 -6.171875 C 6.4375 -5.296875 6.941406 -4.535156 7.578125 -3.890625 C 8.210938 -3.253906 8.972656 -2.753906 9.859375 -2.390625 C 10.742188 -2.023438 11.6875 -1.84375 12.6875 -1.84375 C 13.570312 -1.84375 14.359375 -1.957031 15.046875 -2.1875 C 15.734375 -2.414062 16.335938 -2.710938 16.859375 -3.078125 C 17.390625 -3.453125 17.84375 -3.863281 18.21875 -4.3125 C 18.601562 -4.769531 18.910156 -5.234375 19.140625 -5.703125 C 19.328125 -6.066406 19.53125 -6.367188 19.75 -6.609375 C 19.976562 -6.859375 20.328125 -6.984375 20.796875 -6.984375 C 21.160156 -6.984375 21.460938 -6.851562 21.703125 -6.59375 C 21.953125 -6.34375 22.078125 -5.984375 22.078125 -5.515625 C 22.078125 -5.367188 22.046875 -5.207031 21.984375 -5.03125 C 21.921875 -4.863281 21.851562 -4.707031 21.78125 -4.5625 L 21.53125 -4.046875 C 21.257812 -3.535156 20.878906 -3.003906 20.390625 -2.453125 C 19.898438 -1.898438 19.289062 -1.382812 18.5625 -0.90625 C 17.84375 -0.425781 17 -0.0351562 16.03125 0.265625 C 15.0625 0.578125 13.945312 0.734375 12.6875 0.734375 Z M 12.6875 0.734375 "/></g></g></g><g fill="#f8f9fa" fill-opacity="1"><g transform="translate(203.590427, 459.688066)"><g><path d="M 12.875 0.734375 C 11.351562 0.734375 9.960938 0.484375 8.703125 -0.015625 C 7.441406 -0.515625 6.351562 -1.203125 5.4375 -2.078125 C 4.53125 -2.953125 3.828125 -3.984375 3.328125 -5.171875 C 2.828125 -6.359375 2.578125 -7.640625 2.578125 -9.015625 L 2.578125 -16.75 C 2.578125 -18.113281 2.828125 -19.390625 3.328125 -20.578125 C 3.828125 -21.773438 4.53125 -22.804688 5.4375 -23.671875 C 6.351562 -24.546875 7.441406 -25.234375 8.703125 -25.734375 C 9.960938 -26.242188 11.351562 -26.5 12.875 -26.5 C 14.394531 -26.5 15.785156 -26.242188 17.046875 -25.734375 C 18.316406 -25.234375 19.40625 -24.546875 20.3125 -23.671875 C 21.21875 -22.804688 21.921875 -21.773438 22.421875 -20.578125 C 22.929688 -19.390625 23.1875 -18.113281 23.1875 -16.75 L 23.1875 -9.015625 C 23.1875 -7.640625 22.929688 -6.359375 22.421875 -5.171875 C 21.921875 -3.984375 21.21875 -2.953125 20.3125 -2.078125 C 19.40625 -1.203125 18.316406 -0.515625 17.046875 -0.015625 C 15.785156 0.484375 14.394531 0.734375 12.875 0.734375 Z M 12.875 -1.84375 C 13.9375 -1.84375 14.910156 -2.023438 15.796875 -2.390625 C 16.691406 -2.753906 17.472656 -3.253906 18.140625 -3.890625 C 18.804688 -4.535156 19.320312 -5.296875 19.6875 -6.171875 C 20.050781 -7.054688 20.234375 -8.003906 20.234375 -9.015625 L 20.234375 -16.75 C 20.234375 -17.75 20.050781 -18.679688 19.6875 -19.546875 C 19.320312 -20.421875 18.804688 -21.179688 18.140625 -21.828125 C 17.472656 -22.484375 16.691406 -22.992188 15.796875 -23.359375 C 14.910156 -23.734375 13.9375 -23.921875 12.875 -23.921875 C 11.820312 -23.921875 10.847656 -23.734375 9.953125 -23.359375 C 9.054688 -22.992188 8.273438 -22.484375 7.609375 -21.828125 C 6.953125 -21.179688 6.4375 -20.421875 6.0625 -19.546875 C 5.695312 -18.679688 5.515625 -17.75 5.515625 -16.75 L 5.515625 -9.015625 C 5.515625 -8.003906 5.695312 -7.054688 6.0625 -6.171875 C 6.4375 -5.296875 6.953125 -4.535156 7.609375 -3.890625 C 8.273438 -3.253906 9.054688 -2.753906 9.953125 -2.390625 C 10.847656 -2.023438 11.820312 -1.84375 12.875 -1.84375 Z M 12.875 -1.84375 "/></g></g></g><g fill="#f8f9fa" fill-opacity="1"><g transform="translate(232.590523, 459.688066)"><g><path d="M 4.78125 0.375 C 4.3125 0.375 3.945312 0.222656 3.6875 -0.078125 C 3.4375 -0.390625 3.3125 -0.734375 3.3125 -1.109375 L 3.3125 -24.46875 C 3.3125 -24.9375 3.46875 -25.328125 3.78125 -25.640625 C 4.101562 -25.960938 4.5 -26.125 4.96875 -26.125 C 5.4375 -26.125 5.828125 -26 6.140625 -25.75 C 6.460938 -25.507812 6.742188 -25.207031 6.984375 -24.84375 L 20.046875 -5.15625 L 20.234375 -5.15625 L 20.234375 -24.65625 C 20.234375 -25.019531 20.363281 -25.351562 20.625 -25.65625 C 20.882812 -25.96875 21.242188 -26.125 21.703125 -26.125 C 22.171875 -26.125 22.535156 -25.96875 22.796875 -25.65625 C 23.054688 -25.351562 23.1875 -25.019531 23.1875 -24.65625 L 23.1875 -1.28125 C 23.1875 -0.820312 23.023438 -0.429688 22.703125 -0.109375 C 22.378906 0.210938 21.988281 0.375 21.53125 0.375 C 21.0625 0.375 20.664062 0.25 20.34375 0 C 20.03125 -0.25 19.75 -0.554688 19.5 -0.921875 L 6.4375 -20.609375 L 6.25 -20.609375 L 6.25 -1.109375 C 6.25 -0.734375 6.117188 -0.390625 5.859375 -0.078125 C 5.609375 0.222656 5.25 0.375 4.78125 0.375 Z M 4.78125 0.375 "/></g></g></g><g fill="#f8f9fa" fill-opacity="1"><g transform="translate(262.326662, 459.688066)"><g><path d="M 10.296875 0.375 C 9.835938 0.375 9.476562 0.222656 9.21875 -0.078125 C 8.957031 -0.390625 8.828125 -0.734375 8.828125 -1.109375 L 8.828125 -23.1875 L 1.84375 -23.1875 C 1.375 -23.1875 1.007812 -23.304688 0.75 -23.546875 C 0.5 -23.796875 0.375 -24.101562 0.375 -24.46875 C 0.375 -24.832031 0.5 -25.132812 0.75 -25.375 C 1.007812 -25.625 1.375 -25.75 1.84375 -25.75 L 18.765625 -25.75 C 19.234375 -25.75 19.59375 -25.625 19.84375 -25.375 C 20.101562 -25.132812 20.234375 -24.832031 20.234375 -24.46875 C 20.234375 -24.101562 20.101562 -23.796875 19.84375 -23.546875 C 19.59375 -23.304688 19.234375 -23.1875 18.765625 -23.1875 L 11.78125 -23.1875 L 11.78125 -1.109375 C 11.78125 -0.734375 11.648438 -0.390625 11.390625 -0.078125 C 11.128906 0.222656 10.765625 0.375 10.296875 0.375 Z M 10.296875 0.375 "/></g></g></g><g fill="#f8f9fa" fill-opacity="1"><g transform="translate(286.174464, 459.688066)"><g><path d="M 4.78125 0.375 C 4.3125 0.375 3.945312 0.222656 3.6875 -0.078125 C 3.4375 -0.390625 3.3125 -0.734375 3.3125 -1.109375 L 3.3125 -24.65625 C 3.3125 -25.019531 3.4375 -25.351562 3.6875 -25.65625 C 3.945312 -25.96875 4.3125 -26.125 4.78125 -26.125 C 5.25 -26.125 5.609375 -25.96875 5.859375 -25.65625 C 6.117188 -25.351562 6.25 -25.019531 6.25 -24.65625 L 6.25 -1.109375 C 6.25 -0.734375 6.117188 -0.390625 5.859375 -0.078125 C 5.609375 0.222656 5.25 0.375 4.78125 0.375 Z M 4.78125 0.375 "/></g></g></g><g fill="#f8f9fa" fill-opacity="1"><g transform="translate(298.981624, 459.688066)"><g><path d="M 4.78125 0.375 C 4.3125 0.375 3.945312 0.222656 3.6875 -0.078125 C 3.4375 -0.390625 3.3125 -0.734375 3.3125 -1.109375 L 3.3125 -24.46875 C 3.3125 -24.9375 3.46875 -25.328125 3.78125 -25.640625 C 4.101562 -25.960938 4.5 -26.125 4.96875 -26.125 C 5.4375 -26.125 5.828125 -26 6.140625 -25.75 C 6.460938 -25.507812 6.742188 -25.207031 6.984375 -24.84375 L 20.046875 -5.15625 L 20.234375 -5.15625 L 20.234375 -24.65625 C 20.234375 -25.019531 20.363281 -25.351562 20.625 -25.65625 C 20.882812 -25.96875 21.242188 -26.125 21.703125 -26.125 C 22.171875 -26.125 22.535156 -25.96875 22.796875 -25.65625 C 23.054688 -25.351562 23.1875 -25.019531 23.1875 -24.65625 L 23.1875 -1.28125 C 23.1875 -0.820312 23.023438 -0.429688 22.703125 -0.109375 C 22.378906 0.210938 21.988281 0.375 21.53125 0.375 C 21.0625 0.375 20.664062 0.25 20.34375 0 C 20.03125 -0.25 19.75 -0.554688 19.5 -0.921875 L 6.4375 -20.609375 L 6.25 -20.609375 L 6.25 -1.109375 C 6.25 -0.734375 6.117188 -0.390625 5.859375 -0.078125 C 5.609375 0.222656 5.25 0.375 4.78125 0.375 Z M 4.78125 0.375 "/></g></g></g><g fill="#f8f9fa" fill-opacity="1"><g transform="translate(328.71777, 459.688066)"><g><path d="M 4.78125 0 C 4.3125 0 3.945312 -0.148438 3.6875 -0.453125 C 3.4375 -0.765625 3.3125 -1.101562 3.3125 -1.46875 L 3.3125 -24.28125 C 3.3125 -24.65625 3.4375 -24.992188 3.6875 -25.296875 C 3.945312 -25.597656 4.3125 -25.75 4.78125 -25.75 L 19.6875 -25.75 C 20.15625 -25.75 20.515625 -25.625 20.765625 -25.375 C 21.023438 -25.132812 21.15625 -24.832031 21.15625 -24.46875 C 21.15625 -24.101562 21.023438 -23.796875 20.765625 -23.546875 C 20.515625 -23.304688 20.15625 -23.1875 19.6875 -23.1875 L 6.25 -23.1875 L 6.25 -14.34375 L 16.1875 -14.34375 C 16.65625 -14.34375 17.015625 -14.21875 17.265625 -13.96875 C 17.523438 -13.726562 17.65625 -13.425781 17.65625 -13.0625 C 17.65625 -12.695312 17.523438 -12.390625 17.265625 -12.140625 C 17.015625 -11.898438 16.65625 -11.78125 16.1875 -11.78125 L 6.25 -11.78125 L 6.25 -2.578125 L 20.046875 -2.578125 C 20.515625 -2.578125 20.878906 -2.453125 21.140625 -2.203125 C 21.398438 -1.960938 21.53125 -1.65625 21.53125 -1.28125 C 21.53125 -0.914062 21.398438 -0.609375 21.140625 -0.359375 C 20.878906 -0.117188 20.515625 0 20.046875 0 Z M 4.78125 0 "/></g></g></g><g fill="#f8f9fa" fill-opacity="1"><g transform="translate(354.221674, 459.688066)"><g><path d="M 4.78125 0.375 C 4.3125 0.375 3.945312 0.222656 3.6875 -0.078125 C 3.4375 -0.390625 3.3125 -0.734375 3.3125 -1.109375 L 3.3125 -24.46875 C 3.3125 -24.9375 3.46875 -25.328125 3.78125 -25.640625 C 4.101562 -25.960938 4.5 -26.125 4.96875 -26.125 C 5.4375 -26.125 5.828125 -26 6.140625 -25.75 C 6.460938 -25.507812 6.742188 -25.207031 6.984375 -24.84375 L 20.046875 -5.15625 L 20.234375 -5.15625 L 20.234375 -24.65625 C 20.234375 -25.019531 20.363281 -25.351562 20.625 -25.65625 C 20.882812 -25.96875 21.242188 -26.125 21.703125 -26.125 C 22.171875 -26.125 22.535156 -25.96875 22.796875 -25.65625 C 23.054688 -25.351562 23.1875 -25.019531 23.1875 -24.65625 L 23.1875 -1.28125 C 23.1875 -0.820312 23.023438 -0.429688 22.703125 -0.109375 C 22.378906 0.210938 21.988281 0.375 21.53125 0.375 C 21.0625 0.375 20.664062 0.25 20.34375 0 C 20.03125 -0.25 19.75 -0.554688 19.5 -0.921875 L 6.4375 -20.609375 L 6.25 -20.609375 L 6.25 -1.109375 C 6.25 -0.734375 6.117188 -0.390625 5.859375 -0.078125 C 5.609375 0.222656 5.25 0.375 4.78125 0.375 Z M 4.78125 0.375 "/></g></g></g><g fill="#f8f9fa" fill-opacity="1"><g transform="translate(383.95782, 459.688066)"><g><path d="M 10.296875 0.375 C 9.835938 0.375 9.476562 0.222656 9.21875 -0.078125 C 8.957031 -0.390625 8.828125 -0.734375 8.828125 -1.109375 L 8.828125 -23.1875 L 1.84375 -23.1875 C 1.375 -23.1875 1.007812 -23.304688 0.75 -23.546875 C 0.5 -23.796875 0.375 -24.101562 0.375 -24.46875 C 0.375 -24.832031 0.5 -25.132812 0.75 -25.375 C 1.007812 -25.625 1.375 -25.75 1.84375 -25.75 L 18.765625 -25.75 C 19.234375 -25.75 19.59375 -25.625 19.84375 -25.375 C 20.101562 -25.132812 20.234375 -24.832031 20.234375 -24.46875 C 20.234375 -24.101562 20.101562 -23.796875 19.84375 -23.546875 C 19.59375 -23.304688 19.234375 -23.1875 18.765625 -23.1875 L 11.78125 -23.1875 L 11.78125 -1.109375 C 11.78125 -0.734375 11.648438 -0.390625 11.390625 -0.078125 C 11.128906 0.222656 10.765625 0.375 10.296875 0.375 Z M 10.296875 0.375 "/></g></g></g><g fill="#f8f9fa" fill-opacity="1"><g transform="translate(407.805622, 459.688066)"><g><path d="M 2.03125 0.375 C 1.5625 0.375 1.195312 0.222656 0.9375 -0.078125 C 0.675781 -0.390625 0.546875 -0.734375 0.546875 -1.109375 C 0.546875 -1.253906 0.570312 -1.425781 0.625 -1.625 C 0.644531 -1.71875 0.679688 -1.789062 0.734375 -1.84375 L 9.5625 -24.46875 C 9.863281 -25.207031 10.164062 -25.726562 10.46875 -26.03125 C 10.769531 -26.34375 11.207031 -26.5 11.78125 -26.5 C 12.34375 -26.5 12.773438 -26.34375 13.078125 -26.03125 C 13.390625 -25.726562 13.691406 -25.207031 13.984375 -24.46875 L 22.8125 -1.84375 C 22.832031 -1.789062 22.859375 -1.71875 22.890625 -1.625 C 22.910156 -1.550781 22.929688 -1.46875 22.953125 -1.375 C 22.984375 -1.289062 23 -1.203125 23 -1.109375 C 23 -0.734375 22.867188 -0.390625 22.609375 -0.078125 C 22.347656 0.222656 21.988281 0.375 21.53125 0.375 C 21.15625 0.375 20.859375 0.273438 20.640625 0.078125 C 20.421875 -0.117188 20.222656 -0.453125 20.046875 -0.921875 L 17.84375 -6.8125 L 5.703125 -6.8125 L 3.5 -0.921875 C 3.320312 -0.453125 3.125 -0.117188 2.90625 0.078125 C 2.6875 0.273438 2.394531 0.375 2.03125 0.375 Z M 16.75 -9.390625 L 11.84375 -22.453125 L 11.703125 -22.453125 L 6.8125 -9.390625 Z M 16.75 -9.390625 "/></g></g></g><g fill="#f8f9fa" fill-opacity="1"><g transform="translate(434.597596, 459.688066)"><g><path d="M 4.78125 0 C 4.3125 0 3.945312 -0.148438 3.6875 -0.453125 C 3.4375 -0.765625 3.3125 -1.101562 3.3125 -1.46875 L 3.3125 -24.65625 C 3.3125 -25.019531 3.4375 -25.351562 3.6875 -25.65625 C 3.945312 -25.96875 4.3125 -26.125 4.78125 -26.125 C 5.25 -26.125 5.609375 -25.96875 5.859375 -25.65625 C 6.117188 -25.351562 6.25 -25.019531 6.25 -24.65625 L 6.25 -2.578125 L 18.03125 -2.578125 C 18.5 -2.578125 18.859375 -2.453125 19.109375 -2.203125 C 19.367188 -1.960938 19.5 -1.65625 19.5 -1.28125 C 19.5 -0.914062 19.367188 -0.609375 19.109375 -0.359375 C 18.859375 -0.117188 18.5 0 18.03125 0 Z M 4.78125 0 "/></g></g></g></svg>